<?xml version="1.0" encoding="UTF-8"?>
<!DOCTYPE svg PUBLIC "-//W3C//DTD SVG 1.1//EN" "http://www.w3.org/Graphics/SVG/1.1/DTD/svg11.dtd">
<!-- Creator: CorelDRAW 2018 (64-Bit) -->
<svg xmlns="http://www.w3.org/2000/svg" xml:space="preserve" width="42.3332mm" height="42.3332mm" version="1.1" style="shape-rendering:geometricPrecision; text-rendering:geometricPrecision; image-rendering:optimizeQuality; fill-rule:evenodd; clip-rule:evenodd"
viewBox="0 0 4233.32 4233.32"
 xmlns:xlink="http://www.w3.org/1999/xlink">
 <defs>
  <style type="text/css">
   <![CDATA[
    .fil1 {fill:black}
    .fil2 {fill:#A2A2A2}
    .fil0 {fill:#FEFEFE}
   ]]>
  </style>
 </defs>
 <g id="Слой_x0020_1">
  <metadata id="CorelCorpID_0Corel-Layer"/>
  <g id="_2521158034784">
   <path class="fil" d="M2202.85 2075.25c73.02,30.67 34.65,37.55 108.98,-4.03 80.78,-45.19 240.06,-142.44 310.6,-177.54 -14.76,-43.36 -117.71,-147.91 -15.22,-203.58 83.78,-45.5 131.55,51.63 162.44,116.51 8.81,-3.18 66.81,-35.04 71.68,-40.15 15.84,-16.66 21.04,-60.09 27.57,-85.33 15.12,-58.44 33.55,-118.68 47.22,-178.05 52.95,8.83 124.6,31.57 178.66,46.64 124.67,34.76 66.82,19.48 160.13,-17.57 -13.72,-38.55 -60.26,-90.39 -60.97,-130.94 -0.86,-49.22 46.21,-90.3 99.07,-83.7 51.62,6.45 67.68,56.25 93.23,98.55l138.69 239.02c19.62,32.34 60.58,85.89 37.71,133.66 -18.01,37.64 -79.57,70.99 -127.92,35.24 -20.57,-15.22 -62.24,-90.45 -71.56,-112.46 -13.74,4.32 -64.82,30.78 -73.61,40.96 -12.19,14.15 -65.47,232.31 -75.08,262.21 -57.84,-12.81 -118.99,-30.56 -177.28,-46.63 -103.71,-28.59 -77.95,-26.85 -159.89,19.02 23.16,61.28 117.24,148.86 15.11,202.77 -91.68,48.39 -130.13,-61.54 -163.75,-117.05l-367.91 213.7c-1.89,249.86 -224.38,320.15 -360.83,256.78 -66.4,-30.85 -36.63,-31.44 -104.76,7.59 -82.81,47.44 -236.92,141.87 -308.84,176.06 15.21,47.39 112.75,141.17 21.27,201.26 -86.1,56.56 -141.64,-50.68 -166.62,-113.48 -14.36,4.77 -68.34,33.71 -74.86,41.33 -12.21,14.28 -69.74,242.73 -72.53,262.13 -58.3,-10.64 -125.61,-31.98 -182.17,-47.13 -62.66,-16.8 -87.6,-38.91 -155.97,21.54 12.39,39.23 59.48,83.01 59.29,129.45 -0.19,48.66 -49.33,90.37 -102.42,81.41 -46.42,-7.83 -69.62,-62.47 -91,-100.27l-138.82 -238.83c-22.49,-39.66 -59.73,-80.68 -35.23,-133.72 16.46,-35.65 78.19,-69.99 127.24,-31.77 32.4,25.23 47.34,77.44 74.29,110.98 8.64,-4.14 62.75,-33.37 68.9,-40.06 14.97,-16.29 69.26,-236.47 74.54,-263.16 59.13,11.36 122.59,31.24 181.31,47.14 109.88,29.72 69.15,24.87 157.42,-18.93 -20.7,-62.78 -111.82,-139.37 -20.11,-200.47 40.68,-27.11 89.87,-12.59 111.18,15.83 10.57,14.11 48.98,81.76 54.28,97.27 28.72,-9.92 153.46,-85.25 190.79,-106.31 62.06,-35 123.36,-69 181.7,-105.3 -11.13,-220.61 196.53,-326.76 354.05,-260.59zm-731.21 -1093.61l11.49 -13.53 1.83 14.14c1.67,43.95 17.35,107.35 32.03,144.15 19.15,48.04 32.48,85.78 88.36,69.33 17.27,-61.74 2.29,-183.99 15.02,-267.1 36.31,-236.89 199.53,-272.76 98.77,-539.93 -12.93,-34.25 -33.17,-63 -42.65,-94.91 47.9,20.78 120.83,106.38 149.3,151.82 104.96,167.55 55.27,321.17 75.99,516.28 29.02,273.08 132.28,491.51 50.15,766.13 -89.4,298.96 -291.02,498.04 -585.98,592.39 -146,46.71 -377.61,72.07 -481.74,-31.38 -25.51,-25.33 -43.29,-48.09 -64.29,-87.85 -113.1,-214.19 -142.07,-477.68 9.01,-677.12 19,-25.08 50.23,-50.94 71.75,-68.82 6.64,78.92 -6.91,124 27.89,197.5 26.73,56.48 64.5,78.05 145.52,78.16 19.85,-163.37 35.15,-304.97 -48.64,-462.35 -21.48,-40.35 -49.01,-67.48 -65.27,-109.59 -75.13,-194.45 90.56,-431.64 189.74,-489.05 -97.77,407.28 187.32,400.82 234.76,537.81 17.54,50.65 71.13,138.97 99.27,172.46 -7.08,-67.67 -25.71,-133.87 -41.21,-195.96 -18.92,-75.77 16.47,-141.53 28.9,-202.58zm-441.65 577.7l-5.84 104.45c-31.75,-8.94 -46.08,-34.3 -52.85,-70.63 -16.29,-199.7 11.3,-174.21 11.3,-253.66 -93.25,49.34 -140.71,62.85 -212.68,159.36 -46.83,62.79 -105.64,203.36 -101,274.68l-4.82 99.84c-20.13,13.92 -511.84,314.52 -544.74,327.86l149.68 262.89 143.68 7.87 56.85 101.77 -40.23 27.53c-15.46,8.53 -32.6,18.69 -46.68,26.63l-269.84 152.23 581.28 1006.01c47.43,-11.01 287.33,-171.4 362.51,-201.97 9.05,15.63 22.54,38.64 32.56,55.73 11.85,20.18 30.72,38.75 22.42,60.42 -13.94,36.44 -66.59,94.06 -49.7,129.68l141.41 242.04c52.23,-20.43 290.11,-158.74 364.69,-196.86 63.68,-32.53 121.92,-67.65 182.25,-99.66 291.67,-154.8 624.52,-350.56 913.23,-512.8 16.6,-9.33 1377.92,-801.66 1424.43,-846.6l-147.58 -257.91 -142.35 -8.87 -61.33 -106.47 358.03 -207.35 -581.13 -1002.24 -359.45 204.5c-18.3,-22.86 -66.85,-92.98 -55.53,-118.23 64.59,-144.08 82.91,-66.84 -21.82,-248.17 -21.75,-37.66 -54.06,-85.51 -69,-122.15l-259.33 137.91c-163.79,93.6 -348.03,186.69 -509.37,279.81l-253.38 140.02 -14.91 -88.8c-17.63,-150.59 -13.41,-189.37 -12.84,-327.07 0.45,-109.67 -35.6,-201.99 -77.22,-272.27 -84.6,-142.89 -249.22,-247.42 -413.32,-285.65 31.81,47.51 82.9,79.75 137.15,167.24 36.05,58.15 75.73,138.18 82.44,221.98 13.99,174.4 -135.03,200.88 -135.03,478.86l-5.64 0c0,-36.04 -6.81,-86.63 -10.46,-119.19 -4.18,-37.37 -0.82,-94.93 -0.82,-134.47 -16.44,12.05 -35.87,53.3 -48.95,75.06 -15.93,26.5 -31.28,51.2 -45.13,78.88 -20.78,41.54 -58.11,132.81 -58.11,189.91 -20.35,-5.43 -13.78,-7.2 -30.56,-20.17 -13.18,-10.19 -20.61,-12.56 -34.6,-21.77 -23.66,-15.59 -38.44,-30.27 -57.56,-49.54 -88.45,-89.16 -82.15,-215.21 -45.74,-325 21.34,-64.36 66.19,-123.1 72.63,-147.21 -34.14,18.07 -97.69,39.39 -134.24,63.05 -44.98,29.11 -72.17,50.68 -109.58,87.71 -140.12,138.73 -228.77,405.27 -104.09,569.18 44.96,59.1 74.33,141.23 82.57,216.19 3.21,29.14 3.51,64.88 8.34,95.42z"/>
   <polygon class="fil2" points="1471.64,981.64 1484.96,982.25 1483.13,968.11 "/>
  </g>
 </g>
</svg>
