<svg version="1.0" xmlns="http://www.w3.org/2000/svg"
 width="512.000000pt" height="512.000000pt" viewBox="0 0 512.000000 512.000000"
 preserveAspectRatio="xMidYMid meet">
<g transform="translate(0.000000,512.000000) scale(0.100000,-0.100000)"
fill="#000000" stroke="none">
<path d="M3225 3090 l-1350 -1350 -665 665 c-624 624 -667 665 -700 665 -32 0
-54 -19 -272 -238 -231 -230 -238 -239 -238 -277 0 -39 9 -49 918 -957 909
-910 917 -918 957 -918 40 0 48 8 1642 1603 1594 1594 1603 1602 1603 1642 0
39 -7 47 -237 277 -220 220 -240 238 -273 238 -33 0 -106 -71 -1385 -1350z"/>
</g>
</svg>
