<?xml version="1.0" standalone="no"?>
<!DOCTYPE svg PUBLIC "-//W3C//DTD SVG 20010904//EN"
 "http://www.w3.org/TR/2001/REC-SVG-20010904/DTD/svg10.dtd">
<svg version="1.0" xmlns="http://www.w3.org/2000/svg"
 width="292.000000pt" height="292.000000pt" viewBox="0 0 292.000000 292.000000"
 preserveAspectRatio="xMidYMid meet">

<g transform="translate(0.000000,292.000000) scale(0.100000,-0.100000)"
fill="#000000" stroke="none">
<path d="M221 2834 l-45 -25 -50 21 c-27 11 -51 19 -53 17 -2 -3 6 -26 17 -52
l21 -48 -27 -52 -27 -51 27 -46 26 -45 -27 -48 -26 -48 26 -47 27 -48 -27 -47
-26 -48 26 -47 27 -48 -27 -47 -26 -48 26 -47 27 -48 -27 -47 -26 -48 26 -47
27 -48 -27 -47 -26 -48 26 -47 27 -48 -27 -47 -26 -48 26 -47 27 -48 -27 -47
-26 -48 26 -47 27 -48 -27 -47 -26 -48 26 -47 27 -48 -27 -47 -26 -48 27 -48
27 -49 -27 -46 -28 -47 28 -48 27 -49 -27 -46 -28 -47 28 -48 27 -49 -27 -46
-28 -47 28 -48 27 -48 -27 -48 -27 -48 25 -40 c14 -22 42 -48 61 -59 l36 -19
46 27 45 27 49 -27 48 -28 47 28 46 27 49 -27 48 -27 48 26 47 27 48 -27 47
-26 48 26 47 27 48 -27 47 -26 48 26 47 27 48 -27 47 -26 48 26 47 27 48 -27
47 -26 48 26 47 27 48 -27 47 -26 48 26 47 27 48 -27 47 -26 48 26 47 27 48
-27 47 -26 48 26 47 27 48 -27 47 -26 48 26 47 27 48 -27 47 -26 48 26 47 27
48 -27 47 -26 48 26 48 27 45 -26 46 -27 51 27 52 27 48 -21 c26 -11 50 -19
52 -17 2 2 -6 26 -17 52 l-21 48 27 52 27 51 -27 46 -26 45 27 48 26 48 -27
48 -27 49 27 46 28 47 -28 48 -27 49 27 46 28 47 -28 48 -27 49 27 46 28 47
-28 48 -27 49 27 46 28 47 -28 48 -27 49 27 46 28 47 -28 48 -27 49 27 46 28
47 -28 48 -27 49 27 46 28 47 -28 48 -27 49 27 46 28 47 -28 48 -27 49 27 46
28 47 -28 48 -27 49 27 46 28 47 -28 48 -27 49 27 46 28 47 -28 48 -27 48 27
48 27 48 -25 40 c-14 22 -42 48 -61 59 l-36 18 -46 -26 -47 -26 -48 27 -47 26
-48 -26 -47 -27 -48 27 -47 26 -48 -26 -47 -27 -48 27 -47 26 -48 -26 -47 -27
-48 27 -47 26 -48 -26 -47 -27 -48 27 -47 26 -48 -26 -47 -27 -48 27 -47 26
-48 -26 -47 -27 -48 27 -47 26 -48 -26 -47 -27 -48 27 -47 26 -48 -26 -47 -27
-48 27 -47 26 -48 -26 -47 -27 -48 27 -47 26 -48 -26 -47 -27 -48 27 -47 26
-48 -26 -47 -27 -48 27 -47 26 -48 -26 -48 -27 -43 25 c-23 14 -46 25 -51 25
-4 0 -28 -12 -52 -26z m2477 -1387 l2 -1227 -1235 0 -1235 0 0 1230 0 1230
1233 -2 1232 -3 3 -1228z"/>
<path d="M260 1450 l0 -1200 1205 0 1205 0 -2 1198 -3 1197 -1202 3 -1203 2 0
-1200z m669 1075 c2 -2 -118 -129 -267 -282 l-271 -278 -1 -486 0 -486 127
-124 c71 -68 200 -195 288 -282 l160 -157 -290 2 -290 3 3 38 c2 28 -1 37 -13
37 -13 0 -15 105 -15 995 0 872 2 997 15 1012 14 17 37 18 282 15 147 -2 269
-5 272 -7z m1621 -1070 l0 -1075 -276 0 c-166 0 -274 4 -272 9 2 5 119 129
261 274 l257 265 0 534 1 533 -273 267 -273 267 288 1 287 0 0 -1075z"/>
</g>
</svg>
