<svg
  width="580"
  height="45"
  viewBox="0 0 580 45"
  fill="none"
  xmlns="http://www.w3.org/2000/svg"
>
  <path
    d="M36.9089 2.788L47.1609 25.976C47.6889 27.208 48.1289 28.1467 48.4809 28.792C48.8622 29.408 49.2142 29.848 49.5369 30.112C49.8596 30.3467 50.2409 30.4933 50.6809 30.552C50.8862 31.1973 50.9889 31.9893 50.9889 32.928C50.6076 32.8987 50.0502 32.8693 49.3169 32.84C48.6129 32.84 47.8942 32.8253 47.1609 32.796C46.4276 32.796 45.8262 32.796 45.3569 32.796C44.8876 32.796 44.2569 32.796 43.4649 32.796C42.7022 32.8253 41.9396 32.84 41.1769 32.84C40.4436 32.8693 39.8862 32.8987 39.5049 32.928C39.5049 32.4293 39.5196 31.9893 39.5489 31.608C39.6076 31.2267 39.6956 30.8747 39.8129 30.552C40.9569 30.376 41.6316 30.068 41.8369 29.628C42.0422 29.188 41.8809 28.352 41.3529 27.12L39.9449 23.864C38.1556 23.864 36.2929 23.8933 34.3569 23.952C32.4209 23.9813 30.5729 24.04 28.8129 24.128L27.9769 26.24C27.4489 27.648 27.3022 28.6893 27.5369 29.364C27.8009 30.0387 28.4902 30.4347 29.6049 30.552C29.8102 31.1973 29.9129 31.9893 29.9129 32.928C29.4142 32.8693 28.7249 32.8253 27.8449 32.796C26.9649 32.796 26.1582 32.796 25.4249 32.796C24.7209 32.796 24.0169 32.8107 23.3129 32.84C22.6089 32.8693 22.0369 32.8987 21.5969 32.928C21.5969 32.5173 21.6262 32.1213 21.6849 31.74C21.7436 31.3293 21.8316 30.9333 21.9489 30.552C22.4476 30.464 22.8729 30.2733 23.2249 29.98C23.5769 29.6867 23.9142 29.232 24.2369 28.616C24.5889 27.9707 24.9996 27.076 25.4689 25.932L34.6649 3.008C35.0462 2.92 35.3982 2.86133 35.7209 2.832C36.0436 2.80267 36.4396 2.788 36.9089 2.788ZM32.2889 15.064L29.7809 21.62H38.9769L36.1609 15.108C35.7209 14.1107 35.3396 13.2013 35.0169 12.38C34.7236 11.5587 34.4302 10.6933 34.1369 9.784C33.5796 11.632 32.9636 13.392 32.2889 15.064ZM75.5443 26.724C75.5443 28.22 75.7203 29.232 76.0723 29.76C76.4537 30.288 77.055 30.552 77.8763 30.552C78.023 30.8747 78.111 31.2267 78.1403 31.608C78.1697 31.9893 78.1843 32.4293 78.1843 32.928C77.539 32.8987 76.747 32.8693 75.8083 32.84C74.8697 32.8107 73.931 32.796 72.9923 32.796C72.0243 32.796 70.9683 32.8107 69.8243 32.84C68.6803 32.8693 67.771 32.8987 67.0963 32.928C67.0963 32.4587 67.111 32.0333 67.1403 31.652C67.199 31.2413 67.287 30.8747 67.4043 30.552C68.3137 30.552 68.9883 30.2733 69.4283 29.716C69.8977 29.1293 70.1323 28.0733 70.1323 26.548V21.048C70.1323 19.112 69.795 17.7773 69.1203 17.044C68.475 16.3107 67.595 15.944 66.4803 15.944C65.747 15.944 65.0283 16.208 64.3243 16.736C63.6203 17.2347 63.0483 18.012 62.6083 19.068C62.1683 20.124 61.9483 21.4733 61.9483 23.116V26.724C61.9483 28.22 62.1537 29.232 62.5643 29.76C62.975 30.288 63.679 30.552 64.6763 30.552C64.7937 30.904 64.867 31.2707 64.8963 31.652C64.9257 32.0333 64.9403 32.4587 64.9403 32.928C64.3243 32.8987 63.459 32.8693 62.3443 32.84C61.2297 32.8107 60.203 32.796 59.2643 32.796C58.2963 32.796 57.211 32.796 56.0083 32.796C54.835 32.8253 53.9257 32.8693 53.2803 32.928C53.2803 32.4293 53.295 31.9893 53.3243 31.608C53.383 31.1973 53.471 30.8453 53.5883 30.552C54.7323 30.552 55.5097 30.288 55.9203 29.76C56.331 29.2027 56.5363 28.1907 56.5363 26.724V19.288C56.5363 18.1147 56.3603 17.2787 56.0083 16.78C55.6563 16.252 54.7617 15.9587 53.3243 15.9C53.3243 15.4893 53.3537 15.108 53.4123 14.756C53.471 14.3747 53.5883 14.0373 53.7643 13.744C55.0843 13.6853 56.4043 13.5093 57.7243 13.216C59.0737 12.9227 60.1003 12.6 60.8043 12.248C61.127 12.3653 61.391 12.6 61.5963 12.952C61.831 13.2747 61.9483 13.7733 61.9483 14.448C61.9483 14.8 61.919 15.2107 61.8603 15.68C61.8017 16.12 61.699 16.5893 61.5523 17.088C61.699 16.7947 61.831 16.516 61.9483 16.252C62.095 15.9587 62.3003 15.6653 62.5643 15.372C63.1217 14.668 63.9283 14.008 64.9843 13.392C66.0697 12.776 67.3457 12.468 68.8123 12.468C69.9857 12.468 71.0857 12.7027 72.1123 13.172C73.139 13.612 73.9603 14.36 74.5763 15.416C75.2217 16.472 75.5443 17.88 75.5443 19.64V26.724ZM101.24 25.976C101.24 27.2373 101.387 28.1027 101.68 28.572C101.974 29.0413 102.707 29.276 103.88 29.276C103.91 29.716 103.895 30.156 103.836 30.596C103.807 31.0067 103.704 31.4027 103.528 31.784C102.59 31.8133 101.578 31.96 100.492 32.224C99.407 32.4587 98.439 32.7813 97.5883 33.192C97.1777 33.016 96.855 32.7667 96.6203 32.444C96.415 32.1213 96.3123 31.52 96.3123 30.64C96.3123 30.2587 96.327 29.9067 96.3563 29.584C96.415 29.232 96.503 28.836 96.6203 28.396C96.3563 28.8947 96.107 29.3053 95.8723 29.628C95.6377 29.9507 95.4323 30.2147 95.2563 30.42C94.787 31.0067 94.0243 31.6227 92.9683 32.268C91.9417 32.884 90.739 33.192 89.3603 33.192C86.779 33.192 84.711 32.444 83.1563 30.948C81.631 29.4227 80.8683 27.0027 80.8683 23.688C80.8683 21.5173 81.3523 19.5667 82.3203 17.836C83.2883 16.1053 84.6377 14.7413 86.3683 13.744C88.099 12.7467 90.1377 12.248 92.4843 12.248C93.1003 12.248 93.6723 12.292 94.2003 12.38C94.7283 12.468 95.271 12.5853 95.8283 12.732V8.024C95.8283 6.99733 95.6377 6.23467 95.2563 5.736C94.9043 5.208 94.0097 4.92933 92.5723 4.9C92.5723 4.48933 92.6017 4.108 92.6603 3.756C92.719 3.37467 92.8363 3.03733 93.0123 2.744C93.775 2.744 94.6257 2.67067 95.5643 2.524C96.5323 2.37733 97.427 2.18667 98.2483 1.952C99.0697 1.71733 99.6857 1.48267 100.096 1.248C100.419 1.36533 100.683 1.6 100.888 1.952C101.123 2.27467 101.24 2.744 101.24 3.36V25.976ZM86.5003 22.896C86.5003 25.272 86.9697 27.0467 87.9083 28.22C88.847 29.364 89.859 29.936 90.9443 29.936C91.7657 29.936 92.543 29.6867 93.2763 29.188C94.039 28.66 94.655 27.824 95.1243 26.68C95.5937 25.536 95.8283 24.0107 95.8283 22.104V16.164C95.3883 15.6947 94.8897 15.328 94.3323 15.064C93.775 14.7707 93.115 14.624 92.3523 14.624C91.7657 14.624 91.135 14.7413 90.4603 14.976C89.7857 15.2107 89.1403 15.6213 88.5243 16.208C87.9377 16.7947 87.4537 17.6307 87.0723 18.716C86.691 19.8013 86.5003 21.1947 86.5003 22.896ZM115.487 25.624C115.487 27.5307 115.795 28.8067 116.411 29.452C117.057 30.0973 118.142 30.464 119.667 30.552C119.785 30.8747 119.858 31.2413 119.887 31.652C119.917 32.0627 119.931 32.488 119.931 32.928C119.198 32.8693 118.245 32.8253 117.071 32.796C115.927 32.796 114.783 32.796 113.639 32.796C112.437 32.796 111.175 32.796 109.855 32.796C108.565 32.8253 107.553 32.8693 106.819 32.928C106.819 31.8427 106.907 31.0507 107.083 30.552C108.257 30.464 109.049 30.156 109.459 29.628C109.87 29.1 110.075 28.0147 110.075 26.372V19.288C110.075 18.1147 109.899 17.2787 109.547 16.78C109.195 16.252 108.301 15.9587 106.863 15.9C106.863 15.4893 106.893 15.108 106.951 14.756C107.01 14.3747 107.127 14.0373 107.303 13.744C108.623 13.6853 109.943 13.5093 111.263 13.216C112.613 12.9227 113.639 12.6 114.343 12.248C114.666 12.3653 114.93 12.6 115.135 12.952C115.37 13.2747 115.487 13.7733 115.487 14.448C115.487 15.1813 115.414 15.8853 115.267 16.56C115.15 17.2347 115.003 17.9533 114.827 18.716C115.003 18.188 115.179 17.704 115.355 17.264C115.531 16.7947 115.707 16.428 115.883 16.164C116.499 15.1373 117.262 14.2867 118.171 13.612C119.11 12.9373 120.151 12.6 121.295 12.6C122.439 12.6 123.481 12.952 124.419 13.656C124.302 14.4773 124.199 15.46 124.111 16.604C124.053 17.7187 124.038 18.7013 124.067 19.552C123.686 19.6987 123.187 19.816 122.571 19.904C121.955 19.992 121.383 20.036 120.855 20.036C120.826 18.7747 120.621 17.924 120.239 17.484C119.887 17.044 119.433 16.824 118.875 16.824C118.377 16.824 117.863 17.088 117.335 17.616C116.837 18.144 116.397 18.848 116.015 19.728C115.663 20.608 115.487 21.5613 115.487 22.588V25.624ZM136.965 33.192C134.618 33.192 132.697 32.7373 131.201 31.828C129.734 30.8893 128.634 29.6427 127.901 28.088C127.197 26.504 126.845 24.744 126.845 22.808C126.845 20.8133 127.241 19.024 128.033 17.44C128.825 15.8267 129.954 14.5653 131.421 13.656C132.888 12.7173 134.618 12.248 136.613 12.248C138.637 12.248 140.28 12.6587 141.541 13.48C142.802 14.3013 143.741 15.416 144.357 16.824C145.002 18.2027 145.369 19.772 145.457 21.532C145.281 22.2653 144.973 22.8813 144.533 23.38C143.741 23.38 142.685 23.38 141.365 23.38C140.045 23.38 138.608 23.4093 137.053 23.468C135.498 23.4973 133.988 23.5413 132.521 23.6C132.638 24.832 132.917 25.9467 133.357 26.944C133.826 27.9413 134.486 28.7333 135.337 29.32C136.188 29.9067 137.302 30.2 138.681 30.2C139.678 30.2 140.661 30.0093 141.629 29.628C142.626 29.2173 143.462 28.66 144.137 27.956C144.43 28.1027 144.68 28.3667 144.885 28.748C145.09 29.1 145.208 29.4667 145.237 29.848C144.181 31.0213 142.964 31.872 141.585 32.4C140.236 32.928 138.696 33.192 136.965 33.192ZM136.393 14.712C135.366 14.712 134.472 15.196 133.709 16.164C132.946 17.1027 132.521 18.7307 132.433 21.048H140.001C140.001 19.0827 139.678 17.5427 139.033 16.428C138.417 15.284 137.537 14.712 136.393 14.712ZM163.643 19.684C164.347 17.9827 164.538 16.824 164.215 16.208C163.893 15.5627 163.159 15.1373 162.015 14.932C161.781 14.2867 161.663 13.4947 161.663 12.556C162.338 12.5853 163.042 12.6147 163.775 12.644C164.509 12.644 165.257 12.644 166.019 12.644C166.811 12.644 167.559 12.644 168.263 12.644C168.997 12.6147 169.701 12.5707 170.375 12.512C170.375 12.8933 170.346 13.304 170.287 13.744C170.258 14.184 170.17 14.58 170.023 14.932C169.495 15.0493 169.055 15.24 168.703 15.504C168.381 15.768 168.058 16.1787 167.735 16.736C167.442 17.2933 167.075 18.056 166.635 19.024L160.167 34.424C159.346 36.4187 158.598 38.032 157.923 39.264C157.249 40.496 156.603 41.4347 155.987 42.08C155.401 42.7253 154.799 43.1653 154.183 43.4C153.597 43.6347 152.951 43.752 152.247 43.752C151.338 43.752 150.546 43.6053 149.871 43.312C149.226 43.0187 148.727 42.6813 148.375 42.3C148.287 41.8307 148.258 41.2147 148.287 40.452C148.346 39.7187 148.449 39.1027 148.595 38.604C149.094 38.7213 149.637 38.824 150.223 38.912C150.839 39 151.485 39.044 152.159 39.044C153.069 39.044 153.861 38.868 154.535 38.516C155.239 38.164 155.87 37.548 156.427 36.668C156.75 36.1693 157.234 35.2013 157.879 33.764C157.175 32.18 156.427 30.5227 155.635 28.792C154.873 27.032 154.125 25.36 153.391 23.776C152.658 22.1627 151.998 20.74 151.411 19.508C150.825 18.276 150.326 17.352 149.915 16.736C149.505 16.12 149.109 15.6947 148.727 15.46C148.375 15.196 147.979 15.02 147.539 14.932C147.422 14.6093 147.334 14.2427 147.275 13.832C147.217 13.392 147.187 12.9667 147.187 12.556C148.038 12.5853 148.947 12.6147 149.915 12.644C150.883 12.644 151.822 12.644 152.731 12.644C153.67 12.644 154.741 12.644 155.943 12.644C157.175 12.6147 158.246 12.5853 159.155 12.556C159.155 12.996 159.111 13.436 159.023 13.876C158.965 14.2867 158.877 14.6387 158.759 14.932C157.322 15.1667 156.501 15.5773 156.295 16.164C156.119 16.7213 156.398 17.7627 157.131 19.288C157.659 20.3733 158.246 21.6493 158.891 23.116C159.537 24.5827 160.109 25.9907 160.607 27.34L163.643 19.684ZM202.249 33.192C201.486 32.0773 200.797 31.0067 200.181 29.98C199.565 28.924 198.846 27.736 198.025 26.416C197.233 25.0667 196.456 23.9227 195.693 22.984C194.96 22.016 193.933 21.004 192.613 19.948C191.645 19.9773 190.736 19.9773 189.885 19.948V26.196C189.885 27.3987 189.973 28.308 190.149 28.924C190.325 29.5107 190.618 29.9213 191.029 30.156C191.469 30.3613 192.056 30.4933 192.789 30.552C192.877 30.816 192.936 31.1827 192.965 31.652C192.994 32.092 193.009 32.5173 193.009 32.928C192.393 32.8987 191.689 32.8693 190.897 32.84C190.105 32.8107 189.342 32.796 188.609 32.796C187.876 32.796 187.26 32.796 186.761 32.796C185.852 32.796 184.854 32.796 183.769 32.796C182.684 32.8253 181.76 32.8693 180.997 32.928C180.997 32.488 181.012 32.0627 181.041 31.652C181.07 31.2413 181.144 30.8747 181.261 30.552C182.434 30.464 183.226 30.156 183.637 29.628C184.048 29.1 184.253 28.0147 184.253 26.372V9.432C184.253 7.78933 184.048 6.704 183.637 6.176C183.226 5.648 182.42 5.35467 181.217 5.296C181.129 4.944 181.07 4.548 181.041 4.108C181.012 3.668 180.997 3.272 180.997 2.92C181.554 2.94933 182.405 2.97867 183.549 3.008C184.693 3.03733 185.72 3.052 186.629 3.052C187.48 3.052 188.389 3.052 189.357 3.052C190.354 3.02267 191.278 2.99333 192.129 2.964C193.009 2.93467 193.698 2.92 194.197 2.92C196.896 2.92 199.022 3.272 200.577 3.976C202.132 4.65067 203.246 5.57467 203.921 6.748C204.596 7.892 204.933 9.18267 204.933 10.62C204.933 12.7613 204.302 14.5507 203.041 15.988C201.809 17.396 200.137 18.3787 198.025 18.936C198.817 19.4347 199.492 19.948 200.049 20.476C200.606 20.9747 201.164 21.6347 201.721 22.456C202.308 23.2773 203.041 24.3627 203.921 25.712C204.596 26.768 205.241 27.6333 205.857 28.308C206.473 28.9827 207.133 29.496 207.837 29.848C208.57 30.1707 209.436 30.3467 210.433 30.376C210.433 30.8453 210.418 31.2707 210.389 31.652C210.36 32.0333 210.286 32.4147 210.169 32.796C208.673 32.796 207.221 32.8107 205.813 32.84C204.405 32.8987 203.217 33.016 202.249 33.192ZM192.657 5.296C191.689 5.296 190.765 5.41333 189.885 5.648V17.396C190.472 17.5133 191.044 17.572 191.601 17.572C192.95 17.572 194.182 17.352 195.297 16.912C196.441 16.4427 197.35 15.7533 198.025 14.844C198.7 13.9053 199.037 12.7027 199.037 11.236C199.037 9.44667 198.524 8.00934 197.497 6.924C196.5 5.83867 194.886 5.296 192.657 5.296ZM224.874 19.684C225.578 17.9827 225.768 16.824 225.446 16.208C225.123 15.5627 224.39 15.1373 223.246 14.932C223.011 14.2867 222.894 13.4947 222.894 12.556C223.568 12.5853 224.272 12.6147 225.006 12.644C225.739 12.644 226.487 12.644 227.25 12.644C228.042 12.644 228.79 12.644 229.494 12.644C230.227 12.6147 230.931 12.5707 231.606 12.512C231.606 12.8933 231.576 13.304 231.518 13.744C231.488 14.184 231.4 14.58 231.254 14.932C230.726 15.0493 230.286 15.24 229.934 15.504C229.611 15.768 229.288 16.1787 228.966 16.736C228.672 17.2933 228.306 18.056 227.866 19.024L221.398 34.424C220.576 36.4187 219.828 38.032 219.154 39.264C218.479 40.496 217.834 41.4347 217.218 42.08C216.631 42.7253 216.03 43.1653 215.414 43.4C214.827 43.6347 214.182 43.752 213.478 43.752C212.568 43.752 211.776 43.6053 211.102 43.312C210.456 43.0187 209.958 42.6813 209.606 42.3C209.518 41.8307 209.488 41.2147 209.518 40.452C209.576 39.7187 209.679 39.1027 209.826 38.604C210.324 38.7213 210.867 38.824 211.454 38.912C212.07 39 212.715 39.044 213.39 39.044C214.299 39.044 215.091 38.868 215.766 38.516C216.47 38.164 217.1 37.548 217.658 36.668C217.98 36.1693 218.464 35.2013 219.11 33.764C218.406 32.18 217.658 30.5227 216.866 28.792C216.103 27.032 215.355 25.36 214.622 23.776C213.888 22.1627 213.228 20.74 212.642 19.508C212.055 18.276 211.556 17.352 211.146 16.736C210.735 16.12 210.339 15.6947 209.958 15.46C209.606 15.196 209.21 15.02 208.77 14.932C208.652 14.6093 208.564 14.2427 208.506 13.832C208.447 13.392 208.418 12.9667 208.418 12.556C209.268 12.5853 210.178 12.6147 211.146 12.644C212.114 12.644 213.052 12.644 213.962 12.644C214.9 12.644 215.971 12.644 217.174 12.644C218.406 12.6147 219.476 12.5853 220.386 12.556C220.386 12.996 220.342 13.436 220.254 13.876C220.195 14.2867 220.107 14.6387 219.99 14.932C218.552 15.1667 217.731 15.5773 217.526 16.164C217.35 16.7213 217.628 17.7627 218.362 19.288C218.89 20.3733 219.476 21.6493 220.122 23.116C220.767 24.5827 221.339 25.9907 221.838 27.34L224.874 19.684ZM233.53 32.928C233.53 32.488 233.545 32.0627 233.574 31.652C233.603 31.2413 233.677 30.8747 233.794 30.552C234.967 30.5227 235.759 30.244 236.17 29.716C236.581 29.188 236.786 28.1907 236.786 26.724V7.848C236.786 6.88 236.581 6.16133 236.17 5.692C235.789 5.19333 234.894 4.92933 233.486 4.9C233.486 4.48933 233.515 4.108 233.574 3.756C233.633 3.37467 233.75 3.03733 233.926 2.744C234.718 2.744 235.583 2.67067 236.522 2.524C237.461 2.37733 238.341 2.18667 239.162 1.952C240.013 1.71733 240.629 1.48267 241.01 1.248C241.333 1.36533 241.597 1.6 241.802 1.952C242.037 2.27467 242.154 2.744 242.154 3.36V26.724C242.154 28.1907 242.345 29.188 242.726 29.716C243.137 30.244 243.841 30.5227 244.838 30.552C244.955 30.8747 245.029 31.256 245.058 31.696C245.087 32.136 245.102 32.5467 245.102 32.928C244.398 32.8693 243.518 32.8253 242.462 32.796C241.435 32.796 240.394 32.796 239.338 32.796C238.282 32.796 237.211 32.796 236.126 32.796C235.041 32.8253 234.175 32.8693 233.53 32.928ZM247.796 32.928C247.796 32.488 247.81 32.0627 247.84 31.652C247.869 31.2413 247.942 30.8747 248.06 30.552C249.233 30.5227 250.025 30.244 250.436 29.716C250.846 29.188 251.052 28.1907 251.052 26.724V8.024C251.052 6.99733 250.861 6.23467 250.48 5.736C250.098 5.208 249.189 4.92933 247.752 4.9C247.752 4.48933 247.781 4.108 247.84 3.756C247.898 3.37467 248.016 3.03733 248.192 2.744C248.984 2.744 249.849 2.67067 250.788 2.524C251.726 2.37733 252.606 2.18667 253.428 1.952C254.278 1.71733 254.894 1.48267 255.276 1.248C255.598 1.36533 255.862 1.6 256.068 1.952C256.302 2.27467 256.42 2.744 256.42 3.36V21.4L259.544 18.584C260.453 17.792 261.084 17.1613 261.436 16.692C261.788 16.2227 261.964 15.856 261.964 15.592C261.964 15.152 261.553 14.9173 260.732 14.888C260.497 14.1547 260.38 13.3773 260.38 12.556C261.201 12.5853 262.11 12.6147 263.108 12.644C264.105 12.644 265.029 12.644 265.88 12.644C266.496 12.644 267.156 12.644 267.86 12.644C268.593 12.6147 269.312 12.5853 270.016 12.556C270.016 12.9667 269.986 13.3773 269.928 13.788C269.898 14.1693 269.81 14.536 269.664 14.888C268.666 14.9467 267.772 15.1667 266.98 15.548C266.188 15.9 265.249 16.5747 264.164 17.572L260.82 20.608C261.846 21.6347 262.858 22.7347 263.856 23.908C264.882 25.052 265.997 26.3867 267.2 27.912C267.962 28.88 268.608 29.5253 269.136 29.848C269.664 30.1707 270.368 30.376 271.248 30.464C271.248 30.904 271.218 31.3293 271.16 31.74C271.13 32.1213 271.042 32.4733 270.896 32.796C269.84 32.796 268.74 32.8253 267.596 32.884C266.452 32.9427 265.396 33.0453 264.428 33.192C263.87 32.3707 263.152 31.388 262.272 30.244C261.421 29.0707 260.482 27.868 259.456 26.636C258.429 25.404 257.417 24.26 256.42 23.204V26.724C256.42 28.1613 256.596 29.1587 256.948 29.716C257.3 30.244 257.93 30.5227 258.84 30.552C258.928 30.8747 258.986 31.256 259.016 31.696C259.074 32.136 259.104 32.5467 259.104 32.928C258.4 32.8693 257.549 32.8253 256.552 32.796C255.554 32.796 254.542 32.796 253.516 32.796C252.518 32.796 251.477 32.796 250.392 32.796C249.306 32.8253 248.441 32.8693 247.796 32.928ZM255.056 21.752L254.88 22.764L255.54 22.236C255.364 22.06 255.202 21.8987 255.056 21.752ZM283.584 33.192C280.269 33.192 277.688 32.2533 275.84 30.376C273.992 28.4987 273.068 25.9907 273.068 22.852C273.068 20.7107 273.522 18.848 274.432 17.264C275.37 15.6507 276.632 14.4187 278.216 13.568C279.829 12.688 281.662 12.248 283.716 12.248C286.004 12.248 287.925 12.688 289.48 13.568C291.064 14.448 292.266 15.6653 293.088 17.22C293.909 18.7747 294.32 20.564 294.32 22.588C294.32 24.7 293.865 26.548 292.956 28.132C292.076 29.716 290.829 30.9627 289.216 31.872C287.632 32.752 285.754 33.192 283.584 33.192ZM284.112 30.684C285.608 30.684 286.737 30.0093 287.5 28.66C288.262 27.2813 288.644 25.536 288.644 23.424C288.644 20.6667 288.101 18.5253 287.016 17C285.93 15.4747 284.669 14.712 283.232 14.712C281.736 14.712 280.606 15.372 279.844 16.692C279.11 17.9827 278.744 19.64 278.744 21.664C278.744 24.4213 279.213 26.6213 280.152 28.264C281.12 29.8773 282.44 30.684 284.112 30.684ZM305.978 33.192C305.685 32.4587 305.289 31.5493 304.79 30.464C304.321 29.3493 303.793 28.1613 303.206 26.9C302.649 25.6093 302.092 24.348 301.534 23.116C300.977 21.884 300.464 20.784 299.994 19.816C299.554 18.848 299.217 18.1147 298.982 17.616C298.425 16.5307 297.97 15.8267 297.618 15.504C297.295 15.1813 296.841 14.976 296.254 14.888C296.02 14.1547 295.902 13.3627 295.902 12.512C296.547 12.5413 297.325 12.5707 298.234 12.6C299.173 12.6293 300.185 12.644 301.27 12.644C302.326 12.644 303.412 12.6293 304.526 12.6C305.67 12.5707 306.594 12.5413 307.298 12.512C307.298 12.9227 307.254 13.3333 307.166 13.744C307.108 14.1547 307.034 14.5213 306.946 14.844C305.626 14.9613 304.849 15.2107 304.614 15.592C304.409 15.944 304.57 16.692 305.098 17.836C305.392 18.452 305.758 19.288 306.198 20.344C306.638 21.3707 307.108 22.5 307.606 23.732C308.105 24.9347 308.56 26.1227 308.97 27.296C309.586 25.7413 310.144 24.3333 310.642 23.072C311.17 21.7813 311.684 20.5347 312.182 19.332C312.828 17.7187 313.018 16.604 312.754 15.988C312.49 15.3427 311.83 14.976 310.774 14.888C310.628 14.536 310.51 14.1547 310.422 13.744C310.334 13.3333 310.29 12.9227 310.29 12.512C310.847 12.5413 311.493 12.5707 312.226 12.6C312.989 12.6293 313.737 12.644 314.47 12.644C315.233 12.644 315.996 12.6293 316.758 12.6C317.521 12.5707 318.181 12.5413 318.738 12.512C318.738 12.952 318.694 13.392 318.606 13.832C318.548 14.2427 318.445 14.5947 318.298 14.888C317.565 15.064 316.978 15.4307 316.538 15.988C316.098 16.5453 315.57 17.572 314.954 19.068L308.97 32.708C308.589 32.9133 308.119 33.0453 307.562 33.104C307.034 33.192 306.506 33.2213 305.978 33.192ZM329.411 32.928C329.411 31.8427 329.484 31.0507 329.631 30.552C330.804 30.464 331.596 30.156 332.007 29.628C332.447 29.1 332.667 28.0147 332.667 26.372V9.476C332.667 8.36133 332.579 7.52533 332.403 6.968C332.227 6.38133 331.919 5.98533 331.479 5.78C331.068 5.54533 330.467 5.384 329.675 5.296C329.499 4.70933 329.411 3.91733 329.411 2.92C330.144 2.94933 331.054 2.97867 332.139 3.008C333.224 3.008 334.31 3.02267 335.395 3.052C336.48 3.052 337.419 3.052 338.211 3.052C341.643 3.052 344.312 3.03733 346.219 3.008C348.155 2.97867 349.578 2.94933 350.487 2.92C350.516 3.59467 350.575 4.372 350.663 5.252C350.751 6.132 350.854 7.012 350.971 7.892C351.088 8.74267 351.235 9.49067 351.411 10.136C350.707 10.5467 349.783 10.752 348.639 10.752C348.522 9.81333 348.258 8.93333 347.847 8.112C347.436 7.26133 346.762 6.58667 345.823 6.088C344.884 5.56 343.535 5.296 341.775 5.296H338.299V17.792H340.807C342.479 17.792 343.623 17.5573 344.239 17.088C344.884 16.6187 345.222 15.7093 345.251 14.36C345.662 14.2133 346.087 14.1253 346.527 14.096C346.967 14.0373 347.436 14.008 347.935 14.008C347.876 14.7413 347.832 15.5187 347.803 16.34C347.803 17.1613 347.803 18.012 347.803 18.892C347.803 19.8013 347.803 20.7107 347.803 21.62C347.832 22.5293 347.876 23.336 347.935 24.04C347.407 24.04 346.938 24.0253 346.527 23.996C346.116 23.9373 345.72 23.864 345.339 23.776C345.222 22.3387 344.84 21.3707 344.195 20.872C343.55 20.3733 342.42 20.124 340.807 20.124H338.299V25.624C338.299 27.5307 338.607 28.8067 339.223 29.452C339.868 30.0973 340.954 30.464 342.479 30.552C342.596 30.8747 342.67 31.2413 342.699 31.652C342.758 32.0627 342.787 32.488 342.787 32.928C342.054 32.8693 341.071 32.8253 339.839 32.796C338.636 32.796 337.463 32.796 336.319 32.796C335.116 32.796 333.84 32.796 332.491 32.796C331.142 32.8253 330.115 32.8693 329.411 32.928ZM362.732 33.192C359.417 33.192 356.836 32.2533 354.988 30.376C353.14 28.4987 352.216 25.9907 352.216 22.852C352.216 20.7107 352.671 18.848 353.58 17.264C354.519 15.6507 355.78 14.4187 357.364 13.568C358.977 12.688 360.811 12.248 362.864 12.248C365.152 12.248 367.073 12.688 368.628 13.568C370.212 14.448 371.415 15.6653 372.236 17.22C373.057 18.7747 373.468 20.564 373.468 22.588C373.468 24.7 373.013 26.548 372.104 28.132C371.224 29.716 369.977 30.9627 368.364 31.872C366.78 32.752 364.903 33.192 362.732 33.192ZM363.26 30.684C364.756 30.684 365.885 30.0093 366.648 28.66C367.411 27.2813 367.792 25.536 367.792 23.424C367.792 20.6667 367.249 18.5253 366.164 17C365.079 15.4747 363.817 14.712 362.38 14.712C360.884 14.712 359.755 15.372 358.992 16.692C358.259 17.9827 357.892 19.64 357.892 21.664C357.892 24.4213 358.361 26.6213 359.3 28.264C360.268 29.8773 361.588 30.684 363.26 30.684ZM385.069 33.016C383.016 33.016 381.417 32.4293 380.273 31.256C379.129 30.0827 378.557 28.0147 378.557 25.052V19.288C378.557 18.1147 378.411 17.2787 378.117 16.78C377.824 16.252 377.032 15.9587 375.741 15.9C375.741 15.4893 375.756 15.108 375.785 14.756C375.844 14.404 375.961 14.0667 376.137 13.744C377.428 13.6853 378.689 13.5093 379.921 13.216C381.153 12.9227 382.121 12.6 382.825 12.248C383.148 12.3653 383.412 12.6 383.617 12.952C383.852 13.2747 383.969 13.7733 383.969 14.448V23.996C383.969 25.9907 384.189 27.4427 384.629 28.352C385.099 29.2613 385.905 29.716 387.049 29.716C388.311 29.716 389.396 29.1293 390.305 27.956C391.215 26.7827 391.669 24.964 391.669 22.5V19.068C391.669 17.8947 391.479 17.0587 391.097 16.56C390.745 16.032 389.865 15.7387 388.457 15.68C388.457 15.2693 388.472 14.888 388.501 14.536C388.531 14.184 388.648 13.8467 388.853 13.524C390.32 13.4653 391.699 13.3187 392.989 13.084C394.28 12.8493 395.263 12.5707 395.937 12.248C396.26 12.3653 396.524 12.6 396.729 12.952C396.964 13.2747 397.081 13.7733 397.081 14.448V25.976C397.081 27.2373 397.228 28.1027 397.521 28.572C397.815 29.0413 398.548 29.276 399.721 29.276C399.751 29.716 399.736 30.156 399.677 30.596C399.648 31.0067 399.545 31.4027 399.369 31.784C398.431 31.8133 397.419 31.96 396.333 32.224C395.248 32.4587 394.28 32.7813 393.429 33.192C393.019 33.016 392.696 32.7667 392.461 32.444C392.256 32.1213 392.153 31.52 392.153 30.64C392.153 30.112 392.212 29.4667 392.329 28.704C392.007 29.5253 391.508 30.2587 390.833 30.904C390.129 31.5787 389.308 32.1067 388.369 32.488C387.46 32.84 386.36 33.016 385.069 33.016ZM424.923 26.724C424.923 28.22 425.099 29.232 425.451 29.76C425.833 30.288 426.434 30.552 427.255 30.552C427.402 30.8747 427.49 31.2267 427.519 31.608C427.549 31.9893 427.563 32.4293 427.563 32.928C426.918 32.8987 426.126 32.8693 425.187 32.84C424.249 32.8107 423.31 32.796 422.371 32.796C421.403 32.796 420.347 32.8107 419.203 32.84C418.059 32.8693 417.15 32.8987 416.475 32.928C416.475 32.4587 416.49 32.0333 416.519 31.652C416.578 31.2413 416.666 30.8747 416.783 30.552C417.693 30.552 418.367 30.2733 418.807 29.716C419.277 29.1293 419.511 28.0733 419.511 26.548V21.048C419.511 19.112 419.174 17.7773 418.499 17.044C417.854 16.3107 416.974 15.944 415.859 15.944C415.126 15.944 414.407 16.208 413.703 16.736C412.999 17.2347 412.427 18.012 411.987 19.068C411.547 20.124 411.327 21.4733 411.327 23.116V26.724C411.327 28.22 411.533 29.232 411.943 29.76C412.354 30.288 413.058 30.552 414.055 30.552C414.173 30.904 414.246 31.2707 414.275 31.652C414.305 32.0333 414.319 32.4587 414.319 32.928C413.703 32.8987 412.838 32.8693 411.723 32.84C410.609 32.8107 409.582 32.796 408.643 32.796C407.675 32.796 406.59 32.796 405.387 32.796C404.214 32.8253 403.305 32.8693 402.659 32.928C402.659 32.4293 402.674 31.9893 402.703 31.608C402.762 31.1973 402.85 30.8453 402.967 30.552C404.111 30.552 404.889 30.288 405.299 29.76C405.71 29.2027 405.915 28.1907 405.915 26.724V19.288C405.915 18.1147 405.739 17.2787 405.387 16.78C405.035 16.252 404.141 15.9587 402.703 15.9C402.703 15.4893 402.733 15.108 402.791 14.756C402.85 14.3747 402.967 14.0373 403.143 13.744C404.463 13.6853 405.783 13.5093 407.103 13.216C408.453 12.9227 409.479 12.6 410.183 12.248C410.506 12.3653 410.77 12.6 410.975 12.952C411.21 13.2747 411.327 13.7733 411.327 14.448C411.327 14.8 411.298 15.2107 411.239 15.68C411.181 16.12 411.078 16.5893 410.931 17.088C411.078 16.7947 411.21 16.516 411.327 16.252C411.474 15.9587 411.679 15.6653 411.943 15.372C412.501 14.668 413.307 14.008 414.363 13.392C415.449 12.776 416.725 12.468 418.191 12.468C419.365 12.468 420.465 12.7027 421.491 13.172C422.518 13.612 423.339 14.36 423.955 15.416C424.601 16.472 424.923 17.88 424.923 19.64V26.724ZM450.619 25.976C450.619 27.2373 450.766 28.1027 451.059 28.572C451.353 29.0413 452.086 29.276 453.259 29.276C453.289 29.716 453.274 30.156 453.215 30.596C453.186 31.0067 453.083 31.4027 452.907 31.784C451.969 31.8133 450.957 31.96 449.871 32.224C448.786 32.4587 447.818 32.7813 446.967 33.192C446.557 33.016 446.234 32.7667 445.999 32.444C445.794 32.1213 445.691 31.52 445.691 30.64C445.691 30.2587 445.706 29.9067 445.735 29.584C445.794 29.232 445.882 28.836 445.999 28.396C445.735 28.8947 445.486 29.3053 445.251 29.628C445.017 29.9507 444.811 30.2147 444.635 30.42C444.166 31.0067 443.403 31.6227 442.347 32.268C441.321 32.884 440.118 33.192 438.739 33.192C436.158 33.192 434.09 32.444 432.535 30.948C431.01 29.4227 430.247 27.0027 430.247 23.688C430.247 21.5173 430.731 19.5667 431.699 17.836C432.667 16.1053 434.017 14.7413 435.747 13.744C437.478 12.7467 439.517 12.248 441.863 12.248C442.479 12.248 443.051 12.292 443.579 12.38C444.107 12.468 444.65 12.5853 445.207 12.732V8.024C445.207 6.99733 445.017 6.23467 444.635 5.736C444.283 5.208 443.389 4.92933 441.951 4.9C441.951 4.48933 441.981 4.108 442.039 3.756C442.098 3.37467 442.215 3.03733 442.391 2.744C443.154 2.744 444.005 2.67067 444.943 2.524C445.911 2.37733 446.806 2.18667 447.627 1.952C448.449 1.71733 449.065 1.48267 449.475 1.248C449.798 1.36533 450.062 1.6 450.267 1.952C450.502 2.27467 450.619 2.744 450.619 3.36V25.976ZM435.879 22.896C435.879 25.272 436.349 27.0467 437.287 28.22C438.226 29.364 439.238 29.936 440.323 29.936C441.145 29.936 441.922 29.6867 442.655 29.188C443.418 28.66 444.034 27.824 444.503 26.68C444.973 25.536 445.207 24.0107 445.207 22.104V16.164C444.767 15.6947 444.269 15.328 443.711 15.064C443.154 14.7707 442.494 14.624 441.731 14.624C441.145 14.624 440.514 14.7413 439.839 14.976C439.165 15.2107 438.519 15.6213 437.903 16.208C437.317 16.7947 436.833 17.6307 436.451 18.716C436.07 19.8013 435.879 21.1947 435.879 22.896ZM470.322 33.192C469.882 33.016 469.56 32.7373 469.354 32.356C469.149 31.9453 469.046 31.3733 469.046 30.64C469.046 30.1413 469.09 29.6427 469.178 29.144C468.768 30.1413 468.196 30.948 467.462 31.564C466.905 32.0333 466.216 32.4147 465.394 32.708C464.573 32.972 463.62 33.104 462.534 33.104C460.598 33.104 459.102 32.6933 458.046 31.872C457.02 31.0213 456.506 29.8187 456.506 28.264C456.506 26.856 456.902 25.6973 457.694 24.788C458.516 23.8787 459.542 23.16 460.774 22.632C462.006 22.0747 463.312 21.664 464.69 21.4C466.069 21.1067 467.316 20.872 468.43 20.696C468.43 19.2293 468.372 18.1587 468.254 17.484C468.137 16.78 467.873 16.208 467.462 15.768C466.817 14.976 465.966 14.58 464.91 14.58C464.03 14.58 463.326 14.844 462.798 15.372C462.3 15.9 461.933 16.56 461.698 17.352C461.464 18.1147 461.317 18.848 461.258 19.552C460.701 19.552 460.144 19.5373 459.586 19.508C459.029 19.4493 458.56 19.3467 458.178 19.2C458.237 18.4373 458.252 17.6013 458.222 16.692C458.193 15.7827 458.09 14.9173 457.914 14.096C459.146 13.5093 460.51 13.0547 462.006 12.732C463.502 12.4093 464.896 12.248 466.186 12.248C467.624 12.248 468.797 12.424 469.706 12.776C470.645 13.128 471.378 13.568 471.906 14.096C472.581 14.7707 473.065 15.68 473.358 16.824C473.652 17.968 473.798 19.5373 473.798 21.532V25.756C473.798 27.1053 473.945 28.0147 474.238 28.484C474.561 28.9533 475.294 29.2173 476.438 29.276C476.497 29.716 476.497 30.156 476.438 30.596C476.38 31.0067 476.277 31.4027 476.13 31.784C475.192 31.8133 474.194 31.96 473.138 32.224C472.112 32.4587 471.173 32.7813 470.322 33.192ZM464.338 29.936C464.954 29.936 465.57 29.7307 466.186 29.32C466.832 28.9093 467.36 28.2933 467.77 27.472C468.21 26.6213 468.43 25.536 468.43 24.216V22.852C467.316 23.028 466.274 23.2627 465.306 23.556C464.338 23.82 463.546 24.2453 462.93 24.832C462.314 25.3893 462.006 26.1813 462.006 27.208C462.006 28.1467 462.241 28.836 462.71 29.276C463.18 29.716 463.722 29.936 464.338 29.936ZM486.939 33.192C485.003 33.192 483.551 32.6933 482.583 31.696C481.644 30.6987 481.175 29.056 481.175 26.768V16.076C480.735 15.9 480.266 15.768 479.767 15.68C479.268 15.592 478.667 15.5333 477.963 15.504C477.963 15.0347 477.992 14.624 478.051 14.272C478.139 13.8907 478.271 13.4947 478.447 13.084H481.175V7.496C481.996 7.34933 482.803 7.1 483.595 6.748C484.416 6.36667 485.091 5.956 485.619 5.516C486 5.66267 486.249 5.89733 486.367 6.22C486.484 6.51333 486.543 7.12933 486.543 8.068V13.084H492.087C492.087 13.9347 491.955 14.756 491.691 15.548C489.667 15.6067 487.951 15.812 486.543 16.164V25.932C486.543 27.604 486.748 28.7627 487.159 29.408C487.57 30.024 488.171 30.332 488.963 30.332C489.989 30.332 490.913 30.0533 491.735 29.496C492.145 29.9947 492.366 30.6253 492.395 31.388C491.867 31.8867 491.075 32.312 490.019 32.664C488.992 33.016 487.966 33.192 486.939 33.192ZM494.956 32.928C494.956 32.488 494.971 32.0627 495 31.652C495.059 31.2413 495.147 30.8747 495.264 30.552C496.408 30.5227 497.185 30.244 497.596 29.716C498.007 29.188 498.212 28.1907 498.212 26.724V19.024C498.212 17.9973 498.021 17.2347 497.64 16.736C497.288 16.208 496.393 15.9293 494.956 15.9C494.956 15.4893 494.985 15.108 495.044 14.756C495.103 14.3747 495.22 14.0373 495.396 13.744C496.159 13.744 497.009 13.6707 497.948 13.524C498.916 13.3773 499.811 13.1867 500.632 12.952C501.453 12.7173 502.055 12.4827 502.436 12.248C502.788 12.3653 503.067 12.6 503.272 12.952C503.507 13.2747 503.624 13.744 503.624 14.36V26.724C503.624 28.1907 503.815 29.188 504.196 29.716C504.577 30.244 505.281 30.5227 506.308 30.552C506.396 30.8747 506.455 31.256 506.484 31.696C506.543 32.136 506.572 32.5467 506.572 32.928C505.868 32.8693 504.988 32.8253 503.932 32.796C502.905 32.796 501.864 32.796 500.808 32.796C499.752 32.796 498.681 32.796 497.596 32.796C496.511 32.8253 495.631 32.8693 494.956 32.928ZM500.456 8.2C499.488 8.2 498.711 7.936 498.124 7.408C497.537 6.85067 497.244 6.16133 497.244 5.34C497.244 4.372 497.567 3.624 498.212 3.096C498.857 2.53867 499.635 2.26 500.544 2.26C501.6 2.26 502.421 2.53867 503.008 3.096C503.595 3.624 503.888 4.35733 503.888 5.296C503.888 6.088 503.565 6.77733 502.92 7.364C502.275 7.92133 501.453 8.2 500.456 8.2ZM519.783 33.192C516.468 33.192 513.887 32.2533 512.039 30.376C510.191 28.4987 509.267 25.9907 509.267 22.852C509.267 20.7107 509.721 18.848 510.631 17.264C511.569 15.6507 512.831 14.4187 514.415 13.568C516.028 12.688 517.861 12.248 519.915 12.248C522.203 12.248 524.124 12.688 525.679 13.568C527.263 14.448 528.465 15.6653 529.287 17.22C530.108 18.7747 530.519 20.564 530.519 22.588C530.519 24.7 530.064 26.548 529.155 28.132C528.275 29.716 527.028 30.9627 525.415 31.872C523.831 32.752 521.953 33.192 519.783 33.192ZM520.311 30.684C521.807 30.684 522.936 30.0093 523.699 28.66C524.461 27.2813 524.843 25.536 524.843 23.424C524.843 20.6667 524.3 18.5253 523.215 17C522.129 15.4747 520.868 14.712 519.431 14.712C517.935 14.712 516.805 15.372 516.043 16.692C515.309 17.9827 514.943 19.64 514.943 21.664C514.943 24.4213 515.412 26.6213 516.351 28.264C517.319 29.8773 518.639 30.684 520.311 30.684ZM555.763 26.724C555.763 28.22 555.939 29.232 556.291 29.76C556.672 30.288 557.274 30.552 558.095 30.552C558.242 30.8747 558.33 31.2267 558.359 31.608C558.388 31.9893 558.403 32.4293 558.403 32.928C557.758 32.8987 556.966 32.8693 556.027 32.84C555.088 32.8107 554.15 32.796 553.211 32.796C552.243 32.796 551.187 32.8107 550.043 32.84C548.899 32.8693 547.99 32.8987 547.315 32.928C547.315 32.4587 547.33 32.0333 547.359 31.652C547.418 31.2413 547.506 30.8747 547.623 30.552C548.532 30.552 549.207 30.2733 549.647 29.716C550.116 29.1293 550.351 28.0733 550.351 26.548V21.048C550.351 19.112 550.014 17.7773 549.339 17.044C548.694 16.3107 547.814 15.944 546.699 15.944C545.966 15.944 545.247 16.208 544.543 16.736C543.839 17.2347 543.267 18.012 542.827 19.068C542.387 20.124 542.167 21.4733 542.167 23.116V26.724C542.167 28.22 542.372 29.232 542.783 29.76C543.194 30.288 543.898 30.552 544.895 30.552C545.012 30.904 545.086 31.2707 545.115 31.652C545.144 32.0333 545.159 32.4587 545.159 32.928C544.543 32.8987 543.678 32.8693 542.563 32.84C541.448 32.8107 540.422 32.796 539.483 32.796C538.515 32.796 537.43 32.796 536.227 32.796C535.054 32.8253 534.144 32.8693 533.499 32.928C533.499 32.4293 533.514 31.9893 533.543 31.608C533.602 31.1973 533.69 30.8453 533.807 30.552C534.951 30.552 535.728 30.288 536.139 29.76C536.55 29.2027 536.755 28.1907 536.755 26.724V19.288C536.755 18.1147 536.579 17.2787 536.227 16.78C535.875 16.252 534.98 15.9587 533.543 15.9C533.543 15.4893 533.572 15.108 533.631 14.756C533.69 14.3747 533.807 14.0373 533.983 13.744C535.303 13.6853 536.623 13.5093 537.943 13.216C539.292 12.9227 540.319 12.6 541.023 12.248C541.346 12.3653 541.61 12.6 541.815 12.952C542.05 13.2747 542.167 13.7733 542.167 14.448C542.167 14.8 542.138 15.2107 542.079 15.68C542.02 16.12 541.918 16.5893 541.771 17.088C541.918 16.7947 542.05 16.516 542.167 16.252C542.314 15.9587 542.519 15.6653 542.783 15.372C543.34 14.668 544.147 14.008 545.203 13.392C546.288 12.776 547.564 12.468 549.031 12.468C550.204 12.468 551.304 12.7027 552.331 13.172C553.358 13.612 554.179 14.36 554.795 15.416C555.44 16.472 555.763 17.88 555.763 19.64V26.724Z"
    stroke="white"
  />
</svg>
