<svg
  width="680"
  height="45"
  viewBox="0 0 641 45"
  fill="none"
  xmlns="http://www.w3.org/2000/svg"
>
<path
  d="M11.528 33.1321C11.528 32.7215 11.5574 32.2961 11.616 31.8561C11.6747 31.4161 11.7627 31.0348 11.88 30.7121C13.4347 30.6535 14.476 30.4188 15.004 30.0081C15.5614 29.5975 15.84 28.7761 15.84 27.5441V27.3241C12.9067 27.2655 10.3694 26.8255 8.22804 26.0041C6.08671 25.1828 4.42937 24.0241 3.25604 22.5281C2.11204 21.0321 1.54004 19.2721 1.54004 17.2481C1.54004 15.2828 2.12671 13.5668 3.30004 12.1001C4.47337 10.6335 6.13071 9.47481 8.27204 8.62415C10.4134 7.77348 12.936 7.28948 15.84 7.17215C15.8107 5.91081 15.5467 5.06015 15.048 4.62015C14.5494 4.18015 13.4787 3.91615 11.836 3.82815C11.7187 3.56415 11.6454 3.21215 11.616 2.77215C11.5867 2.33215 11.572 1.89215 11.572 1.45215C13.5667 1.54015 15.9134 1.58415 18.612 1.58415C19.756 1.58415 20.9734 1.56948 22.264 1.54015C23.584 1.51081 24.6694 1.48148 25.52 1.45215C25.52 1.86282 25.4907 2.28815 25.432 2.72815C25.4027 3.16815 25.344 3.53481 25.256 3.82815C23.6427 3.91615 22.572 4.18015 22.044 4.62015C21.5454 5.06015 21.296 5.89615 21.296 7.12815C24.2294 7.18681 26.752 7.61215 28.864 8.40415C30.976 9.16681 32.604 10.2668 33.748 11.7041C34.9214 13.1121 35.508 14.7841 35.508 16.7201C35.508 18.7735 34.936 20.5775 33.792 22.1321C32.648 23.6575 31.0054 24.8748 28.864 25.7841C26.752 26.6641 24.2294 27.1628 21.296 27.2801V27.5441C21.296 28.7761 21.5454 29.5975 22.044 30.0081C22.5427 30.4188 23.5987 30.6535 25.212 30.7121C25.3294 31.0055 25.4027 31.3721 25.432 31.8121C25.4907 32.2521 25.52 32.6921 25.52 33.1321C24.5227 33.0735 23.4227 33.0295 22.22 33.0001C21.0467 33.0001 19.8294 33.0001 18.568 33.0001C17.3947 33.0001 16.148 33.0001 14.828 33.0001C13.508 33.0295 12.408 33.0735 11.528 33.1321ZM7.48004 16.6761C7.48004 19.0521 8.24271 20.9735 9.76804 22.4401C11.3227 23.9068 13.42 24.7281 16.06 24.9041V9.54815C13.42 9.57748 11.3227 10.2228 9.76804 11.4841C8.24271 12.7455 7.48004 14.4761 7.48004 16.6761ZM29.568 17.4241C29.568 15.1655 28.8054 13.3468 27.28 11.9681C25.7547 10.5601 23.672 9.76815 21.032 9.59215V24.9041C23.6427 24.8748 25.7107 24.2001 27.236 22.8801C28.7907 21.5308 29.568 19.7121 29.568 17.4241ZM49.0831 33.3961C45.7684 33.3961 43.1871 32.4575 41.3391 30.5801C39.4911 28.7028 38.5671 26.1948 38.5671 23.0561C38.5671 20.9148 39.0218 19.0521 39.9311 17.4681C40.8698 15.8548 42.1311 14.6228 43.7151 13.7721C45.3284 12.8921 47.1618 12.4521 49.2151 12.4521C51.5031 12.4521 53.4244 12.8921 54.9791 13.7721C56.5631 14.6521 57.7658 15.8695 58.5871 17.4241C59.4084 18.9788 59.8191 20.7681 59.8191 22.7921C59.8191 24.9041 59.3644 26.7521 58.4551 28.3361C57.5751 29.9201 56.3284 31.1668 54.7151 32.0761C53.1311 32.9561 51.2538 33.3961 49.0831 33.3961ZM49.6111 30.8881C51.1071 30.8881 52.2364 30.2135 52.9991 28.8641C53.7618 27.4855 54.1431 25.7401 54.1431 23.6281C54.1431 20.8708 53.6004 18.7295 52.5151 17.2041C51.4298 15.6788 50.1684 14.9161 48.7311 14.9161C47.2351 14.9161 46.1058 15.5761 45.3431 16.8961C44.6098 18.1868 44.2431 19.8441 44.2431 21.8681C44.2431 24.6255 44.7124 26.8255 45.6511 28.4681C46.6191 30.0815 47.9391 30.8881 49.6111 30.8881ZM62.6994 33.1321C62.6994 32.6335 62.7141 32.1935 62.7434 31.8121C62.7727 31.4308 62.8607 31.0788 63.0074 30.7561C63.8874 30.7561 64.5327 30.4921 64.9434 29.9641C65.3541 29.4361 65.5594 28.4241 65.5594 26.9281V18.9201C65.5594 17.4241 65.3541 16.4121 64.9434 15.8841C64.5327 15.3561 63.8874 15.0921 63.0074 15.0921C62.8607 14.7695 62.7727 14.4175 62.7434 14.0361C62.7141 13.6548 62.6994 13.2148 62.6994 12.7161C63.3447 12.7455 64.1661 12.7748 65.1634 12.8041C66.1607 12.8335 67.1874 12.8481 68.2434 12.8481C69.2701 12.8481 70.2527 12.8335 71.1914 12.8041C72.1594 12.7748 72.9661 12.7455 73.6114 12.7161C73.6114 13.2148 73.5821 13.6548 73.5234 14.0361C73.4941 14.4175 73.4207 14.7695 73.3034 15.0921C72.4527 15.0921 71.8221 15.3561 71.4114 15.8841C71.0301 16.4121 70.8394 17.4241 70.8394 18.9201V21.6041H79.4634V18.9201C79.4634 17.4241 79.2581 16.4121 78.8474 15.8841C78.4661 15.3561 77.8501 15.0921 76.9994 15.0921C76.8527 14.7695 76.7647 14.4175 76.7354 14.0361C76.7061 13.6548 76.6914 13.2148 76.6914 12.7161C77.3367 12.7455 78.1287 12.7748 79.0674 12.8041C80.0354 12.8335 81.0328 12.8481 82.0594 12.8481C83.1154 12.8481 84.1274 12.8335 85.0954 12.8041C86.0927 12.7748 86.9287 12.7455 87.6034 12.7161C87.6034 13.2148 87.5741 13.6548 87.5154 14.0361C87.4861 14.4175 87.4128 14.7695 87.2954 15.0921C86.4154 15.0921 85.7701 15.3561 85.3594 15.8841C84.9487 16.4121 84.7434 17.4241 84.7434 18.9201V26.9281C84.7434 28.4241 84.9487 29.4361 85.3594 29.9641C85.7701 30.4921 86.4154 30.7561 87.2954 30.7561C87.4128 31.0788 87.4861 31.4308 87.5154 31.8121C87.5741 32.1935 87.6034 32.6335 87.6034 33.1321C86.9287 33.1028 86.0927 33.0735 85.0954 33.0441C84.1274 33.0148 83.1154 33.0001 82.0594 33.0001C81.0328 33.0001 80.0354 33.0148 79.0674 33.0441C78.1287 33.0735 77.3367 33.1028 76.6914 33.1321C76.6914 32.6335 76.7061 32.1935 76.7354 31.8121C76.7647 31.4308 76.8527 31.0788 76.9994 30.7561C77.8501 30.7561 78.4661 30.4921 78.8474 29.9641C79.2581 29.4361 79.4634 28.4241 79.4634 26.9281V23.8041C78.6421 23.8041 77.7034 23.8188 76.6474 23.8481C75.5914 23.8481 74.5501 23.8775 73.5234 23.9361C72.4967 23.9655 71.6021 24.0095 70.8394 24.0681V26.9281C70.8394 28.4241 71.0301 29.4361 71.4114 29.9641C71.8221 30.4921 72.4527 30.7561 73.3034 30.7561C73.4207 31.0788 73.4941 31.4308 73.5234 31.8121C73.5821 32.1935 73.6114 32.6335 73.6114 33.1321C72.9661 33.1028 72.1594 33.0735 71.1914 33.0441C70.2527 33.0148 69.2701 33.0001 68.2434 33.0001C67.1874 33.0001 66.1607 33.0148 65.1634 33.0441C64.1661 33.0735 63.3447 33.1028 62.6994 33.1321ZM93.6531 40.3922C92.3918 40.7735 91.2038 40.7735 90.0891 40.3922C90.1184 38.8668 90.0891 37.4588 90.0011 36.1681C89.9131 34.9068 89.7664 33.8068 89.5611 32.8681C89.5611 32.0175 89.8104 31.3135 90.3091 30.7561H90.7931C92.0251 30.7561 93.0078 30.2428 93.7411 29.2161C94.5038 28.1601 95.0758 26.7081 95.4571 24.8601C95.8678 23.0121 96.1318 20.9001 96.2491 18.5241C96.3078 17.5855 96.2931 16.8815 96.2051 16.4121C96.1464 15.9428 95.9264 15.6348 95.5451 15.4881C95.1638 15.3121 94.5771 15.1801 93.7851 15.0921C93.6678 14.7695 93.5798 14.4175 93.5211 14.0361C93.4918 13.6255 93.4771 13.1855 93.4771 12.7161C94.3571 12.7748 95.5451 12.8188 97.0411 12.8481C98.5664 12.8481 100.561 12.8481 103.025 12.8481C104.961 12.8481 106.545 12.8481 107.777 12.8481C109.038 12.8188 110.05 12.8041 110.813 12.8041C111.576 12.7748 112.221 12.7455 112.749 12.7161C112.749 13.2148 112.72 13.6548 112.661 14.0361C112.632 14.4175 112.558 14.7695 112.441 15.0921C111.59 15.0921 110.974 15.3561 110.593 15.8841C110.241 16.4121 110.065 17.4241 110.065 18.9201V26.9281C110.065 28.4241 110.241 29.4361 110.593 29.9641C110.974 30.4921 111.59 30.7561 112.441 30.7561H113.673C114.142 31.3135 114.377 32.0175 114.377 32.8681C114.201 33.8068 114.054 34.9068 113.937 36.1681C113.849 37.4588 113.82 38.8668 113.849 40.3922C112.734 40.7735 111.546 40.7735 110.285 40.3922C110.344 37.8695 110.168 35.4055 109.757 33.0001H94.1811C93.7704 35.4055 93.5944 37.8695 93.6531 40.3922ZM98.8891 18.4361C98.6544 21.7215 98.3464 24.3175 97.9651 26.2241C97.6131 28.1308 97.0411 29.5975 96.2491 30.6241H101.969C103.054 30.6241 103.773 30.4188 104.125 30.0081C104.506 29.5975 104.697 28.7908 104.697 27.5881V18.3481C104.697 17.4095 104.624 16.7348 104.477 16.3241C104.36 15.8841 104.125 15.5761 103.773 15.4001C103.48 15.2828 103.157 15.2095 102.805 15.1801C102.453 15.1215 102.13 15.0921 101.837 15.0921C101.485 15.0921 101.133 15.1215 100.781 15.1801C100.429 15.2095 100.121 15.2828 99.8571 15.4001C99.4464 15.5468 99.1971 15.8108 99.1091 16.1921C99.0504 16.5735 98.9771 17.3215 98.8891 18.4361ZM125.349 33.1321C125.349 32.6335 125.363 32.1935 125.393 31.8121C125.422 31.4308 125.51 31.0788 125.657 30.7561C126.478 30.7561 127.065 30.4921 127.417 29.9641C127.798 29.4361 127.989 28.4241 127.989 26.9281V18.9201C127.989 17.4241 127.798 16.4121 127.417 15.8841C127.065 15.3561 126.478 15.0921 125.657 15.0921C125.51 14.7695 125.422 14.4175 125.393 14.0361C125.363 13.6548 125.349 13.2148 125.349 12.7161C125.994 12.7455 126.786 12.7748 127.725 12.8041C128.693 12.8335 129.69 12.8481 130.717 12.8481C131.685 12.8481 132.623 12.8335 133.533 12.8041C134.471 12.7748 135.263 12.7455 135.909 12.7161C135.909 13.2148 135.879 13.6548 135.821 14.0361C135.791 14.4175 135.718 14.7695 135.601 15.0921C134.779 15.0921 134.178 15.3561 133.797 15.8841C133.445 16.4121 133.269 17.4241 133.269 18.9201V25.2121L142.025 17.5121C141.907 16.6028 141.658 15.9721 141.277 15.6201C140.925 15.2681 140.426 15.0921 139.781 15.0921C139.634 14.7695 139.546 14.4175 139.517 14.0361C139.487 13.6548 139.473 13.2148 139.473 12.7161C140.089 12.7455 140.851 12.7748 141.761 12.8041C142.699 12.8335 143.667 12.8481 144.665 12.8481C145.691 12.8481 146.674 12.8335 147.613 12.8041C148.581 12.7748 149.387 12.7455 150.033 12.7161C150.033 13.2148 150.003 13.6548 149.945 14.0361C149.915 14.4175 149.842 14.7695 149.725 15.0921C148.903 15.0921 148.302 15.3561 147.921 15.8841C147.539 16.4121 147.349 17.4241 147.349 18.9201V26.9281C147.349 28.4241 147.539 29.4361 147.921 29.9641C148.302 30.4921 148.903 30.7561 149.725 30.7561C149.842 31.0788 149.915 31.4308 149.945 31.8121C150.003 32.1935 150.033 32.6335 150.033 33.1321C149.387 33.1028 148.581 33.0735 147.613 33.0441C146.674 33.0148 145.691 33.0001 144.665 33.0001C143.667 33.0001 142.699 33.0148 141.761 33.0441C140.851 33.0735 140.089 33.1028 139.473 33.1321C139.473 32.6335 139.487 32.1935 139.517 31.8121C139.546 31.4308 139.634 31.0788 139.781 30.7561C140.573 30.7561 141.145 30.4921 141.497 29.9641C141.878 29.4361 142.069 28.4241 142.069 26.9281V20.5921L133.357 28.2921C133.445 29.2308 133.665 29.8761 134.017 30.2281C134.398 30.5801 134.926 30.7561 135.601 30.7561C135.718 31.0788 135.791 31.4308 135.821 31.8121C135.879 32.1935 135.909 32.6335 135.909 33.1321C135.263 33.1028 134.471 33.0735 133.533 33.0441C132.623 33.0148 131.685 33.0001 130.717 33.0001C129.69 33.0001 128.693 33.0148 127.725 33.0441C126.786 33.0735 125.994 33.1028 125.349 33.1321ZM164.843 32.3841L158.507 18.6561L157.583 26.0481C157.407 27.3681 157.363 28.3655 157.451 29.0401C157.539 29.6855 157.759 30.1255 158.111 30.3601C158.493 30.5948 159.006 30.7268 159.651 30.7561C159.798 31.1081 159.886 31.4895 159.915 31.9001C159.945 32.3108 159.959 32.7215 159.959 33.1321C159.461 33.0735 158.859 33.0295 158.155 33.0001C157.481 33.0001 156.85 33.0001 156.263 33.0001C155.677 33.0001 155.002 33.0001 154.239 33.0001C153.477 33.0295 152.831 33.0735 152.303 33.1321C152.303 32.6628 152.318 32.2375 152.347 31.8561C152.377 31.4748 152.465 31.1081 152.611 30.7561C153.462 30.6975 154.093 30.3601 154.503 29.7441C154.914 29.1281 155.222 27.9108 155.427 26.0921L156.307 18.1721C156.454 16.8815 156.351 16.0455 155.999 15.6641C155.677 15.2828 155.046 15.0921 154.107 15.0921C153.961 14.7401 153.873 14.3735 153.843 13.9921C153.814 13.5815 153.799 13.1561 153.799 12.7161C154.415 12.7455 155.105 12.7748 155.867 12.8041C156.63 12.8335 157.275 12.8481 157.803 12.8481C158.126 12.8481 158.537 12.8481 159.035 12.8481C159.534 12.8188 160.018 12.8041 160.487 12.8041C160.957 12.7748 161.323 12.7601 161.587 12.7601L167.527 25.5641L173.291 12.7601C173.819 12.7895 174.494 12.8188 175.315 12.8481C176.137 12.8481 176.797 12.8481 177.295 12.8481C177.794 12.8481 178.41 12.8335 179.143 12.8041C179.877 12.7748 180.551 12.7455 181.167 12.7161C181.167 13.2148 181.138 13.6548 181.079 14.0361C181.05 14.4175 180.977 14.7695 180.859 15.0921C179.921 15.0921 179.275 15.3121 178.923 15.7521C178.571 16.1628 178.469 16.9988 178.615 18.2601L179.627 26.9281C179.745 28.0428 179.891 28.8641 180.067 29.3921C180.243 29.8908 180.478 30.2281 180.771 30.4041C181.094 30.5801 181.549 30.6975 182.135 30.7561C182.253 31.0788 182.326 31.4455 182.355 31.8561C182.414 32.2668 182.443 32.6921 182.443 33.1321C182.121 33.1028 181.593 33.0735 180.859 33.0441C180.126 33.0441 179.378 33.0295 178.615 33.0001C177.853 33.0001 177.237 33.0001 176.767 33.0001C176.005 33.0001 175.139 33.0148 174.171 33.0441C173.203 33.0735 172.455 33.1028 171.927 33.1321C171.927 32.6335 171.942 32.2081 171.971 31.8561C172.03 31.4748 172.118 31.1081 172.235 30.7561C172.91 30.6975 173.409 30.5948 173.731 30.4481C174.054 30.2721 174.245 29.9495 174.303 29.4801C174.362 29.0108 174.333 28.2775 174.215 27.2801L173.203 18.5241L166.955 32.1641C166.691 32.2521 166.354 32.3108 165.943 32.3401C165.562 32.3695 165.195 32.3841 164.843 32.3841ZM194.911 33.3961C192.565 33.3961 190.643 32.9415 189.147 32.0321C187.681 31.0935 186.581 29.8468 185.847 28.2921C185.143 26.7081 184.791 24.9481 184.791 23.0121C184.791 21.0175 185.187 19.2281 185.979 17.6441C186.771 16.0308 187.901 14.7695 189.367 13.8601C190.834 12.9215 192.565 12.4521 194.559 12.4521C196.583 12.4521 198.226 12.8628 199.487 13.6841C200.749 14.5055 201.687 15.6201 202.303 17.0281C202.949 18.4068 203.315 19.9761 203.403 21.7361C203.227 22.4695 202.919 23.0855 202.479 23.5841C201.687 23.5841 200.631 23.5841 199.311 23.5841C197.991 23.5841 196.554 23.6135 194.999 23.6721C193.445 23.7015 191.934 23.7455 190.467 23.8041C190.585 25.0361 190.863 26.1508 191.303 27.1481C191.773 28.1455 192.433 28.9375 193.283 29.5241C194.134 30.1108 195.249 30.4041 196.627 30.4041C197.625 30.4041 198.607 30.2135 199.575 29.8321C200.573 29.4215 201.409 28.8641 202.083 28.1601C202.377 28.3068 202.626 28.5708 202.831 28.9521C203.037 29.3041 203.154 29.6708 203.183 30.0521C202.127 31.2255 200.91 32.0761 199.531 32.6041C198.182 33.1321 196.642 33.3961 194.911 33.3961ZM194.339 14.9161C193.313 14.9161 192.418 15.4001 191.655 16.3681C190.893 17.3068 190.467 18.9348 190.379 21.2521H197.947C197.947 19.2868 197.625 17.7468 196.979 16.6321C196.363 15.4881 195.483 14.9161 194.339 14.9161ZM206.474 33.1321C206.474 32.6335 206.489 32.1935 206.518 31.8121C206.548 31.4308 206.636 31.0788 206.782 30.7561C207.662 30.7561 208.308 30.4921 208.718 29.9641C209.129 29.4361 209.334 28.4241 209.334 26.9281V18.9201C209.334 17.4241 209.129 16.4121 208.718 15.8841C208.308 15.3561 207.662 15.0921 206.782 15.0921C206.636 14.7695 206.548 14.4175 206.518 14.0361C206.489 13.6548 206.474 13.2148 206.474 12.7161C207.12 12.7455 207.941 12.7748 208.938 12.8041C209.936 12.8335 210.962 12.8481 212.018 12.8481C213.045 12.8481 214.028 12.8335 214.966 12.8041C215.934 12.7748 216.741 12.7455 217.386 12.7161C217.386 13.2148 217.357 13.6548 217.298 14.0361C217.269 14.4175 217.196 14.7695 217.078 15.0921C216.228 15.0921 215.597 15.3561 215.186 15.8841C214.805 16.4121 214.614 17.4241 214.614 18.9201V21.6041H223.238V18.9201C223.238 17.4241 223.033 16.4121 222.622 15.8841C222.241 15.3561 221.625 15.0921 220.774 15.0921C220.628 14.7695 220.54 14.4175 220.51 14.0361C220.481 13.6548 220.466 13.2148 220.466 12.7161C221.112 12.7455 221.904 12.7748 222.842 12.8041C223.81 12.8335 224.808 12.8481 225.834 12.8481C226.89 12.8481 227.902 12.8335 228.87 12.8041C229.868 12.7748 230.704 12.7455 231.378 12.7161C231.378 13.2148 231.349 13.6548 231.29 14.0361C231.261 14.4175 231.188 14.7695 231.07 15.0921C230.19 15.0921 229.545 15.3561 229.134 15.8841C228.724 16.4121 228.518 17.4241 228.518 18.9201V26.9281C228.518 28.4241 228.724 29.4361 229.134 29.9641C229.545 30.4921 230.19 30.7561 231.07 30.7561C231.188 31.0788 231.261 31.4308 231.29 31.8121C231.349 32.1935 231.378 32.6335 231.378 33.1321C230.704 33.1028 229.868 33.0735 228.87 33.0441C227.902 33.0148 226.89 33.0001 225.834 33.0001C224.808 33.0001 223.81 33.0148 222.842 33.0441C221.904 33.0735 221.112 33.1028 220.466 33.1321C220.466 32.6335 220.481 32.1935 220.51 31.8121C220.54 31.4308 220.628 31.0788 220.774 30.7561C221.625 30.7561 222.241 30.4921 222.622 29.9641C223.033 29.4361 223.238 28.4241 223.238 26.9281V23.8041C222.417 23.8041 221.478 23.8188 220.422 23.8481C219.366 23.8481 218.325 23.8775 217.298 23.9361C216.272 23.9655 215.377 24.0095 214.614 24.0681V26.9281C214.614 28.4241 214.805 29.4361 215.186 29.9641C215.597 30.4921 216.228 30.7561 217.078 30.7561C217.196 31.0788 217.269 31.4308 217.298 31.8121C217.357 32.1935 217.386 32.6335 217.386 33.1321C216.741 33.1028 215.934 33.0735 214.966 33.0441C214.028 33.0148 213.045 33.0001 212.018 33.0001C210.962 33.0001 209.936 33.0148 208.938 33.0441C207.941 33.0735 207.12 33.1028 206.474 33.1321ZM234.304 33.1321C234.304 32.6335 234.319 32.1935 234.348 31.8121C234.377 31.4308 234.465 31.0788 234.612 30.7561C235.433 30.7561 236.02 30.4921 236.372 29.9641C236.753 29.4361 236.944 28.4241 236.944 26.9281V18.9201C236.944 17.4241 236.753 16.4121 236.372 15.8841C236.02 15.3561 235.433 15.0921 234.612 15.0921C234.465 14.7695 234.377 14.4175 234.348 14.0361C234.319 13.6548 234.304 13.2148 234.304 12.7161C234.949 12.7455 235.741 12.7748 236.68 12.8041C237.648 12.8335 238.645 12.8481 239.672 12.8481C240.64 12.8481 241.579 12.8335 242.488 12.8041C243.427 12.7748 244.219 12.7455 244.864 12.7161C244.864 13.2148 244.835 13.6548 244.776 14.0361C244.747 14.4175 244.673 14.7695 244.556 15.0921C243.735 15.0921 243.133 15.3561 242.752 15.8841C242.4 16.4121 242.224 17.4241 242.224 18.9201V25.2121L250.98 17.5121C250.863 16.6028 250.613 15.9721 250.232 15.6201C249.88 15.2681 249.381 15.0921 248.736 15.0921C248.589 14.7695 248.501 14.4175 248.472 14.0361C248.443 13.6548 248.428 13.2148 248.428 12.7161C249.044 12.7455 249.807 12.7748 250.716 12.8041C251.655 12.8335 252.623 12.8481 253.62 12.8481C254.647 12.8481 255.629 12.8335 256.568 12.8041C257.536 12.7748 258.343 12.7455 258.988 12.7161C258.988 13.2148 258.959 13.6548 258.9 14.0361C258.871 14.4175 258.797 14.7695 258.68 15.0921C257.859 15.0921 257.257 15.3561 256.876 15.8841C256.495 16.4121 256.304 17.4241 256.304 18.9201V26.9281C256.304 28.4241 256.495 29.4361 256.876 29.9641C257.257 30.4921 257.859 30.7561 258.68 30.7561C258.797 31.0788 258.871 31.4308 258.9 31.8121C258.959 32.1935 258.988 32.6335 258.988 33.1321C258.343 33.1028 257.536 33.0735 256.568 33.0441C255.629 33.0148 254.647 33.0001 253.62 33.0001C252.623 33.0001 251.655 33.0148 250.716 33.0441C249.807 33.0735 249.044 33.1028 248.428 33.1321C248.428 32.6335 248.443 32.1935 248.472 31.8121C248.501 31.4308 248.589 31.0788 248.736 30.7561C249.528 30.7561 250.1 30.4921 250.452 29.9641C250.833 29.4361 251.024 28.4241 251.024 26.9281V20.5921L242.312 28.2921C242.4 29.2308 242.62 29.8761 242.972 30.2281C243.353 30.5801 243.881 30.7561 244.556 30.7561C244.673 31.0788 244.747 31.4308 244.776 31.8121C244.835 32.1935 244.864 32.6335 244.864 33.1321C244.219 33.1028 243.427 33.0735 242.488 33.0441C241.579 33.0148 240.64 33.0001 239.672 33.0001C238.645 33.0001 237.648 33.0148 236.68 33.0441C235.741 33.0735 234.949 33.1028 234.304 33.1321ZM285.28 2.99215L295.532 26.1801C296.06 27.4121 296.5 28.3508 296.852 28.9961C297.233 29.6121 297.585 30.0521 297.908 30.3161C298.23 30.5508 298.612 30.6975 299.052 30.7561C299.257 31.4015 299.36 32.1935 299.36 33.1321C298.978 33.1028 298.421 33.0735 297.688 33.0441C296.984 33.0441 296.265 33.0295 295.532 33.0001C294.798 33.0001 294.197 33.0001 293.728 33.0001C293.258 33.0001 292.628 33.0001 291.836 33.0001C291.073 33.0295 290.31 33.0441 289.548 33.0441C288.814 33.0735 288.257 33.1028 287.876 33.1321C287.876 32.6335 287.89 32.1935 287.92 31.8121C287.978 31.4308 288.066 31.0788 288.184 30.7561C289.328 30.5801 290.002 30.2721 290.208 29.8321C290.413 29.3921 290.252 28.5561 289.724 27.3241L288.316 24.0681C286.526 24.0681 284.664 24.0975 282.728 24.1561C280.792 24.1855 278.944 24.2441 277.184 24.3321L276.348 26.4441C275.82 27.8521 275.673 28.8935 275.908 29.5681C276.172 30.2428 276.861 30.6388 277.976 30.7561C278.181 31.4015 278.284 32.1935 278.284 33.1321C277.785 33.0735 277.096 33.0295 276.216 33.0001C275.336 33.0001 274.529 33.0001 273.796 33.0001C273.092 33.0001 272.388 33.0148 271.684 33.0441C270.98 33.0735 270.408 33.1028 269.968 33.1321C269.968 32.7215 269.997 32.3255 270.056 31.9441C270.114 31.5335 270.202 31.1375 270.32 30.7561C270.818 30.6681 271.244 30.4775 271.596 30.1841C271.948 29.8908 272.285 29.4361 272.608 28.8201C272.96 28.1748 273.37 27.2801 273.84 26.1361L283.036 3.21215C283.417 3.12415 283.769 3.06548 284.092 3.03615C284.414 3.00681 284.81 2.99215 285.28 2.99215ZM280.66 15.2681L278.152 21.8241H287.348L284.532 15.3121C284.092 14.3148 283.71 13.4055 283.388 12.5841C283.094 11.7628 282.801 10.8975 282.508 9.98815C281.95 11.8361 281.334 13.5961 280.66 15.2681ZM301.551 33.1321C301.551 32.6335 301.566 32.1935 301.595 31.8121C301.624 31.4308 301.712 31.0788 301.859 30.7561C302.739 30.7561 303.384 30.4921 303.795 29.9641C304.206 29.4361 304.411 28.4241 304.411 26.9281V18.9201C304.411 17.4241 304.206 16.4121 303.795 15.8841C303.384 15.3561 302.739 15.0921 301.859 15.0921C301.712 14.7695 301.624 14.4175 301.595 14.0361C301.566 13.6548 301.551 13.2148 301.551 12.7161C302.196 12.7455 303.018 12.7748 304.015 12.8041C305.012 12.8335 306.039 12.8481 307.095 12.8481C308.122 12.8481 309.104 12.8335 310.043 12.8041C311.011 12.7748 311.818 12.7455 312.463 12.7161C312.463 13.2148 312.434 13.6548 312.375 14.0361C312.346 14.4175 312.272 14.7695 312.155 15.0921C311.304 15.0921 310.674 15.3561 310.263 15.8841C309.882 16.4121 309.691 17.4241 309.691 18.9201V21.6041H318.315V18.9201C318.315 17.4241 318.11 16.4121 317.699 15.8841C317.318 15.3561 316.702 15.0921 315.851 15.0921C315.704 14.7695 315.616 14.4175 315.587 14.0361C315.558 13.6548 315.543 13.2148 315.543 12.7161C316.188 12.7455 316.98 12.7748 317.919 12.8041C318.887 12.8335 319.884 12.8481 320.911 12.8481C321.967 12.8481 322.979 12.8335 323.947 12.8041C324.944 12.7748 325.78 12.7455 326.455 12.7161C326.455 13.2148 326.426 13.6548 326.367 14.0361C326.338 14.4175 326.264 14.7695 326.147 15.0921C325.267 15.0921 324.622 15.3561 324.211 15.8841C323.8 16.4121 323.595 17.4241 323.595 18.9201V26.9281C323.595 28.4241 323.8 29.4361 324.211 29.9641C324.622 30.4921 325.267 30.7561 326.147 30.7561C326.264 31.0788 326.338 31.4308 326.367 31.8121C326.426 32.1935 326.455 32.6335 326.455 33.1321C325.78 33.1028 324.944 33.0735 323.947 33.0441C322.979 33.0148 321.967 33.0001 320.911 33.0001C319.884 33.0001 318.887 33.0148 317.919 33.0441C316.98 33.0735 316.188 33.1028 315.543 33.1321C315.543 32.6335 315.558 32.1935 315.587 31.8121C315.616 31.4308 315.704 31.0788 315.851 30.7561C316.702 30.7561 317.318 30.4921 317.699 29.9641C318.11 29.4361 318.315 28.4241 318.315 26.9281V23.8041C317.494 23.8041 316.555 23.8188 315.499 23.8481C314.443 23.8481 313.402 23.8775 312.375 23.9361C311.348 23.9655 310.454 24.0095 309.691 24.0681V26.9281C309.691 28.4241 309.882 29.4361 310.263 29.9641C310.674 30.4921 311.304 30.7561 312.155 30.7561C312.272 31.0788 312.346 31.4308 312.375 31.8121C312.434 32.1935 312.463 32.6335 312.463 33.1321C311.818 33.1028 311.011 33.0735 310.043 33.0441C309.104 33.0148 308.122 33.0001 307.095 33.0001C306.039 33.0001 305.012 33.0148 304.015 33.0441C303.018 33.0735 302.196 33.1028 301.551 33.1321ZM332.505 40.3922C331.243 40.7735 330.055 40.7735 328.941 40.3922C328.97 38.8668 328.941 37.4588 328.853 36.1681C328.765 34.9068 328.618 33.8068 328.413 32.8681C328.413 32.0175 328.662 31.3135 329.161 30.7561H329.645C330.877 30.7561 331.859 30.2428 332.593 29.2161C333.355 28.1601 333.927 26.7081 334.309 24.8601C334.719 23.0121 334.983 20.9001 335.101 18.5241C335.159 17.5855 335.145 16.8815 335.057 16.4121C334.998 15.9428 334.778 15.6348 334.397 15.4881C334.015 15.3121 333.429 15.1801 332.637 15.0921C332.519 14.7695 332.431 14.4175 332.373 14.0361C332.343 13.6255 332.329 13.1855 332.329 12.7161C333.209 12.7748 334.397 12.8188 335.893 12.8481C337.418 12.8481 339.413 12.8481 341.877 12.8481C343.813 12.8481 345.397 12.8481 346.629 12.8481C347.89 12.8188 348.902 12.8041 349.665 12.8041C350.427 12.7748 351.073 12.7455 351.601 12.7161C351.601 13.2148 351.571 13.6548 351.513 14.0361C351.483 14.4175 351.41 14.7695 351.293 15.0921C350.442 15.0921 349.826 15.3561 349.445 15.8841C349.093 16.4121 348.917 17.4241 348.917 18.9201V26.9281C348.917 28.4241 349.093 29.4361 349.445 29.9641C349.826 30.4921 350.442 30.7561 351.293 30.7561H352.525C352.994 31.3135 353.229 32.0175 353.229 32.8681C353.053 33.8068 352.906 34.9068 352.789 36.1681C352.701 37.4588 352.671 38.8668 352.701 40.3922C351.586 40.7735 350.398 40.7735 349.137 40.3922C349.195 37.8695 349.019 35.4055 348.609 33.0001H333.033C332.622 35.4055 332.446 37.8695 332.505 40.3922ZM337.741 18.4361C337.506 21.7215 337.198 24.3175 336.817 26.2241C336.465 28.1308 335.893 29.5975 335.101 30.6241H340.821C341.906 30.6241 342.625 30.4188 342.977 30.0081C343.358 29.5975 343.549 28.7908 343.549 27.5881V18.3481C343.549 17.4095 343.475 16.7348 343.329 16.3241C343.211 15.8841 342.977 15.5761 342.625 15.4001C342.331 15.2828 342.009 15.2095 341.657 15.1801C341.305 15.1215 340.982 15.0921 340.689 15.0921C340.337 15.0921 339.985 15.1215 339.633 15.1801C339.281 15.2095 338.973 15.2828 338.709 15.4001C338.298 15.5468 338.049 15.8108 337.961 16.1921C337.902 16.5735 337.829 17.3215 337.741 18.4361ZM355.492 43.7801C355.492 42.6948 355.58 41.9028 355.756 41.4041C356.929 41.3161 357.721 41.0081 358.132 40.4801C358.542 39.9521 358.748 38.8668 358.748 37.2241V19.4921C358.748 18.3188 358.572 17.4828 358.22 16.9841C357.868 16.4561 356.973 16.1628 355.536 16.1041C355.536 15.6935 355.565 15.3121 355.624 14.9601C355.682 14.5788 355.8 14.2415 355.976 13.9481C357.296 13.8895 358.616 13.7135 359.936 13.4201C361.285 13.1268 362.312 12.8041 363.016 12.4521C363.338 12.5695 363.602 12.8041 363.808 13.1561C364.042 13.4788 364.16 13.9775 364.16 14.6521C364.16 15.1801 364.057 15.7668 363.852 16.4121C364.028 16.1481 364.189 15.9281 364.336 15.7521C364.482 15.5468 364.614 15.3708 364.732 15.2241C365.201 14.6375 365.949 14.0361 366.976 13.4201C368.032 12.7748 369.264 12.4521 370.672 12.4521C373.224 12.4521 375.262 13.2001 376.788 14.6961C378.342 16.1628 379.12 18.4801 379.12 21.6481C379.12 23.9361 378.636 25.9601 377.668 27.7201C376.729 29.4801 375.38 30.8735 373.62 31.9001C371.889 32.8975 369.85 33.3961 367.504 33.3961C366.888 33.3961 366.316 33.3521 365.788 33.2641C365.26 33.1761 364.717 33.0588 364.16 32.9121V36.4762C364.16 38.3828 364.468 39.6588 365.084 40.3041C365.729 40.9495 366.814 41.3161 368.34 41.4041C368.457 41.7268 368.53 42.0935 368.56 42.5042C368.589 42.9148 368.604 43.3401 368.604 43.7801C367.87 43.7215 366.917 43.6775 365.744 43.6481C364.6 43.6481 363.456 43.6481 362.312 43.6481C361.109 43.6481 359.848 43.6481 358.528 43.6481C357.237 43.6775 356.225 43.7215 355.492 43.7801ZM364.16 23.5401V29.4801C364.629 29.9495 365.128 30.3308 365.656 30.6241C366.213 30.8881 366.888 31.0201 367.68 31.0201C368.237 31.0201 368.853 30.9028 369.528 30.6681C370.202 30.4335 370.833 30.0228 371.42 29.4361C372.036 28.8495 372.534 28.0135 372.916 26.9281C373.297 25.8428 373.488 24.4495 373.488 22.7481C373.488 20.7241 373.092 19.0521 372.3 17.7321C371.508 16.3828 370.422 15.7081 369.044 15.7081C368.252 15.7081 367.474 15.9721 366.712 16.5001C365.978 16.9988 365.362 17.8201 364.864 18.9641C364.394 20.1081 364.16 21.6335 364.16 23.5401ZM392.412 33.3961C390.065 33.3961 388.144 32.9415 386.648 32.0321C385.181 31.0935 384.081 29.8468 383.348 28.2921C382.644 26.7081 382.292 24.9481 382.292 23.0121C382.292 21.0175 382.688 19.2281 383.48 17.6441C384.272 16.0308 385.401 14.7695 386.868 13.8601C388.335 12.9215 390.065 12.4521 392.06 12.4521C394.084 12.4521 395.727 12.8628 396.988 13.6841C398.249 14.5055 399.188 15.6201 399.804 17.0281C400.449 18.4068 400.816 19.9761 400.904 21.7361C400.728 22.4695 400.42 23.0855 399.98 23.5841C399.188 23.5841 398.132 23.5841 396.812 23.5841C395.492 23.5841 394.055 23.6135 392.5 23.6721C390.945 23.7015 389.435 23.7455 387.968 23.8041C388.085 25.0361 388.364 26.1508 388.804 27.1481C389.273 28.1455 389.933 28.9375 390.784 29.5241C391.635 30.1108 392.749 30.4041 394.128 30.4041C395.125 30.4041 396.108 30.2135 397.076 29.8321C398.073 29.4215 398.909 28.8641 399.584 28.1601C399.877 28.3068 400.127 28.5708 400.332 28.9521C400.537 29.3041 400.655 29.6708 400.684 30.0521C399.628 31.2255 398.411 32.0761 397.032 32.6041C395.683 33.1321 394.143 33.3961 392.412 33.3961ZM391.84 14.9161C390.813 14.9161 389.919 15.4001 389.156 16.3681C388.393 17.3068 387.968 18.9348 387.88 21.2521H395.448C395.448 19.2868 395.125 17.7468 394.48 16.6321C393.864 15.4881 392.984 14.9161 391.84 14.9161ZM409.783 33.2641C408.757 33.1468 407.701 33.0735 406.615 33.0441C405.53 33.0148 404.518 33.0001 403.579 33.0001C403.433 32.7068 403.33 32.3108 403.271 31.8121C403.242 31.2841 403.227 30.9468 403.227 30.8001C404.137 30.7121 404.826 30.5215 405.295 30.2281C405.765 29.9055 406.102 29.5388 406.307 29.1281C406.542 28.6881 406.762 28.2628 406.967 27.8521C407.319 27.1775 407.833 26.5028 408.507 25.8281C409.211 25.1241 410.267 24.6841 411.675 24.5081C409.798 24.1855 408.258 23.5401 407.055 22.5721C405.882 21.5748 405.295 20.2841 405.295 18.7001C405.295 17.6735 405.589 16.7055 406.175 15.7961C406.791 14.8868 407.803 14.1535 409.211 13.5961C410.649 13.0095 412.585 12.7161 415.019 12.7161C415.811 12.7161 416.662 12.7455 417.571 12.8041C418.481 12.8335 419.434 12.8481 420.431 12.8481C421.106 12.8481 421.898 12.8481 422.807 12.8481C423.746 12.8188 424.538 12.7895 425.183 12.7601C425.183 12.9655 425.169 13.3175 425.139 13.8161C425.11 14.2855 425.051 14.6668 424.963 14.9601C423.995 15.0775 423.35 15.3268 423.027 15.7081C422.705 16.0601 422.543 16.8815 422.543 18.1721V27.8961C422.543 29.0695 422.705 29.8468 423.027 30.2281C423.35 30.5801 423.995 30.7855 424.963 30.8441C425.11 31.3428 425.183 32.0908 425.183 33.0881C424.479 33.0588 423.673 33.0295 422.763 33.0001C421.883 33.0001 421.121 33.0001 420.475 33.0001C419.742 33.0001 418.818 33.0001 417.703 33.0001C416.618 33.0295 415.709 33.0588 414.975 33.0881C414.975 32.6775 414.99 32.2521 415.019 31.8121C415.078 31.3721 415.151 31.0495 415.239 30.8441C415.973 30.8148 416.486 30.6388 416.779 30.3161C417.073 29.9641 417.219 29.1281 417.219 27.8081V25.2561C415.694 25.2855 414.565 25.4908 413.831 25.8721C413.098 26.2535 412.57 26.7815 412.247 27.4561C411.954 28.1015 411.719 28.8201 411.543 29.6121C411.279 30.5801 411.045 31.3135 410.839 31.8121C410.663 32.3108 410.311 32.7948 409.783 33.2641ZM415.899 22.9681C416.31 22.9681 416.75 22.9095 417.219 22.7921V15.3121C416.838 15.2241 416.457 15.1655 416.075 15.1361C415.694 15.0775 415.342 15.0481 415.019 15.0481C413.553 15.0481 412.511 15.3708 411.895 16.0161C411.279 16.6615 410.971 17.5561 410.971 18.7001C410.971 20.1081 411.397 21.1788 412.247 21.9121C413.127 22.6161 414.345 22.9681 415.899 22.9681ZM437.39 33.1321C437.39 32.0468 437.464 31.2548 437.61 30.7561C438.784 30.6681 439.576 30.3601 439.986 29.8321C440.426 29.3041 440.646 28.2188 440.646 26.5761V9.68015C440.646 8.56548 440.558 7.72948 440.382 7.17215C440.206 6.58548 439.898 6.18948 439.458 5.98415C439.048 5.74948 438.446 5.58815 437.654 5.50015C437.478 4.91348 437.39 4.12148 437.39 3.12415C438.593 3.18281 439.752 3.22681 440.866 3.25615C441.981 3.25615 442.934 3.25615 443.726 3.25615C444.313 3.25615 445.046 3.25615 445.926 3.25615C446.806 3.22681 447.657 3.21215 448.478 3.21215C449.3 3.18281 449.916 3.16815 450.326 3.16815C452.966 3.16815 455.049 3.56415 456.574 4.35615C458.129 5.14815 459.229 6.20415 459.874 7.52415C460.549 8.84415 460.886 10.3108 460.886 11.9241C460.886 13.7721 460.49 15.5028 459.698 17.1161C458.936 18.7001 457.777 19.9761 456.222 20.9441C454.697 21.9121 452.805 22.3961 450.546 22.3961C449.314 22.3961 448.288 22.2495 447.466 21.9561C447.32 21.1055 447.378 20.3575 447.642 19.7121C448.229 19.8295 448.86 19.8881 449.534 19.8881C450.444 19.8881 451.309 19.6975 452.13 19.3161C452.981 18.9348 453.656 18.2601 454.154 17.2921C454.682 16.3241 454.946 14.9601 454.946 13.2001C454.946 10.9415 454.418 9.10815 453.362 7.70015C452.336 6.29215 450.664 5.58815 448.346 5.58815C448.053 5.58815 447.745 5.61748 447.422 5.67615C447.1 5.70548 446.718 5.76415 446.278 5.85215V25.8281C446.278 27.7348 446.586 29.0108 447.202 29.6561C447.848 30.3015 448.933 30.6681 450.458 30.7561C450.576 31.0788 450.649 31.4455 450.678 31.8561C450.737 32.2668 450.766 32.6921 450.766 33.1321C450.033 33.0735 449.05 33.0295 447.818 33.0001C446.616 33.0001 445.428 33.0001 444.254 33.0001C443.081 33.0001 441.82 33.0001 440.47 33.0001C439.121 33.0295 438.094 33.0735 437.39 33.1321ZM463.874 33.1321C463.874 32.6335 463.889 32.1935 463.918 31.8121C463.948 31.4308 464.036 31.0788 464.182 30.7561C465.004 30.7561 465.59 30.4921 465.942 29.9641C466.324 29.4361 466.514 28.4241 466.514 26.9281V18.9201C466.514 17.4241 466.324 16.4121 465.942 15.8841C465.59 15.3561 465.004 15.0921 464.182 15.0921C464.036 14.7695 463.948 14.4175 463.918 14.0361C463.889 13.6548 463.874 13.2148 463.874 12.7161C464.52 12.7455 465.341 12.7748 466.338 12.8041C467.336 12.8335 468.436 12.8481 469.638 12.8481C470.841 12.8481 472.014 12.8335 473.158 12.8041C474.302 12.7748 475.197 12.7455 475.842 12.7161C475.842 13.1268 475.813 13.5521 475.754 13.9921C475.725 14.4028 475.652 14.7695 475.534 15.0921C474.185 15.1508 473.246 15.4001 472.718 15.8401C472.19 16.2801 471.926 17.1455 471.926 18.4361V20.5041C472.66 20.4455 473.496 20.4161 474.434 20.4161C477.514 20.4161 479.861 20.9148 481.474 21.9121C483.117 22.9095 483.938 24.5228 483.938 26.7521C483.938 28.6588 483.22 30.1841 481.782 31.3281C480.374 32.4428 478.072 33.0001 474.874 33.0001C472.997 33.0001 471.046 33.0001 469.022 33.0001C466.998 33.0295 465.282 33.0735 463.874 33.1321ZM484.642 33.1321C484.642 32.6335 484.657 32.1935 484.686 31.8121C484.745 31.4308 484.833 31.0788 484.95 30.7561C485.772 30.7561 486.373 30.4921 486.754 29.9641C487.136 29.4361 487.326 28.4241 487.326 26.9281V18.9201C487.326 17.4241 487.136 16.4121 486.754 15.8841C486.373 15.3561 485.772 15.0921 484.95 15.0921C484.833 14.7695 484.745 14.4175 484.686 14.0361C484.657 13.6548 484.642 13.2148 484.642 12.7161C485.288 12.7455 486.08 12.7748 487.018 12.8041C487.986 12.8335 488.984 12.8481 490.01 12.8481C491.037 12.8481 492.02 12.8335 492.958 12.8041C493.926 12.7748 494.733 12.7455 495.378 12.7161C495.378 13.2148 495.349 13.6548 495.29 14.0361C495.261 14.4175 495.188 14.7695 495.07 15.0921C494.249 15.0921 493.648 15.3561 493.266 15.8841C492.885 16.4121 492.694 17.4241 492.694 18.9201V26.9281C492.694 28.4241 492.885 29.4361 493.266 29.9641C493.648 30.4921 494.249 30.7561 495.07 30.7561C495.188 31.0788 495.261 31.4308 495.29 31.8121C495.349 32.1935 495.378 32.6335 495.378 33.1321C494.733 33.1028 493.926 33.0735 492.958 33.0441C492.02 33.0148 491.037 33.0001 490.01 33.0001C488.984 33.0001 487.986 33.0148 487.018 33.0441C486.08 33.0735 485.288 33.1028 484.642 33.1321ZM471.926 27.6761C471.926 28.8788 472.132 29.7001 472.542 30.1401C472.982 30.5508 473.628 30.7561 474.478 30.7561C475.652 30.7561 476.502 30.4628 477.03 29.8761C477.558 29.2895 477.822 28.4095 477.822 27.2361C477.822 26.0628 477.617 25.1535 477.206 24.5081C476.825 23.8335 476.326 23.3641 475.71 23.1001C475.094 22.8068 474.478 22.6601 473.862 22.6601C473.686 22.6601 473.408 22.6748 473.026 22.7041C472.645 22.7041 472.278 22.7188 471.926 22.7481V27.6761ZM500.213 33.3081C499.597 33.3081 499.025 33.2055 498.497 33.0001C497.969 32.7948 497.573 32.5601 497.309 32.2961C497.163 31.7388 497.133 31.0641 497.221 30.2721C497.309 29.4508 497.456 28.7761 497.661 28.2481C497.984 28.3361 498.336 28.4095 498.717 28.4681C499.128 28.4975 499.451 28.5121 499.685 28.5121C501.269 28.5121 502.399 27.5881 503.073 25.7401C503.777 23.8921 504.276 21.3401 504.569 18.0841C504.628 17.2628 504.628 16.6468 504.569 16.2361C504.511 15.8255 504.276 15.5615 503.865 15.4441C503.455 15.2975 502.78 15.1801 501.841 15.0921C501.724 14.7401 501.636 14.3735 501.577 13.9921C501.548 13.5815 501.533 13.1708 501.533 12.7601C502.355 12.7895 503.499 12.8188 504.965 12.8481C506.461 12.8481 508.412 12.8481 510.817 12.8481C513.604 12.8481 515.701 12.8335 517.109 12.8041C518.547 12.7748 519.632 12.7455 520.365 12.7161C520.365 13.2148 520.351 13.6548 520.321 14.0361C520.292 14.4175 520.204 14.7695 520.057 15.0921C519.236 15.0921 518.635 15.3561 518.253 15.8841C517.901 16.4121 517.725 17.4241 517.725 18.9201V26.9281C517.725 28.4241 517.901 29.4361 518.253 29.9641C518.635 30.4921 519.236 30.7561 520.057 30.7561C520.204 31.0788 520.292 31.4308 520.321 31.8121C520.351 32.1935 520.365 32.6335 520.365 33.1321C519.72 33.1028 518.913 33.0735 517.945 33.0441C517.007 33.0148 516.039 33.0001 515.041 33.0001C514.015 33.0001 513.017 33.0148 512.049 33.0441C511.111 33.0735 510.319 33.1028 509.673 33.1321C509.673 32.6335 509.688 32.1935 509.717 31.8121C509.747 31.4308 509.835 31.0788 509.981 30.7561C510.803 30.7561 511.389 30.4921 511.741 29.9641C512.123 29.4361 512.313 28.4241 512.313 26.9281V18.3041C512.313 17.0428 512.152 16.2068 511.829 15.7961C511.536 15.3855 510.803 15.1801 509.629 15.1801C508.837 15.1801 508.265 15.2681 507.913 15.4441C507.591 15.5908 507.371 15.8988 507.253 16.3681C507.136 16.8081 507.033 17.4535 506.945 18.3041C506.623 21.1495 506.227 23.7015 505.757 25.9601C505.317 28.2188 504.672 30.0081 503.821 31.3281C502.971 32.6481 501.768 33.3081 500.213 33.3081ZM523.315 33.1321C523.315 32.6335 523.33 32.1935 523.359 31.8121C523.388 31.4308 523.476 31.0788 523.623 30.7561C524.444 30.7561 525.031 30.4921 525.383 29.9641C525.764 29.4361 525.955 28.4241 525.955 26.9281V18.9201C525.955 17.4241 525.764 16.4121 525.383 15.8841C525.031 15.3561 524.444 15.0921 523.623 15.0921C523.476 14.7695 523.388 14.4175 523.359 14.0361C523.33 13.6548 523.315 13.2148 523.315 12.7161C523.96 12.7455 524.782 12.7748 525.779 12.8041C526.776 12.8335 527.876 12.8481 529.079 12.8481C530.282 12.8481 531.455 12.8335 532.599 12.8041C533.743 12.7748 534.638 12.7455 535.283 12.7161C535.283 13.1268 535.254 13.5521 535.195 13.9921C535.166 14.4028 535.092 14.7695 534.975 15.0921C533.626 15.1508 532.687 15.4001 532.159 15.8401C531.631 16.2801 531.367 17.1455 531.367 18.4361V20.6801C532.13 20.5921 533.01 20.5481 534.007 20.5481C537.322 20.5481 539.844 21.0468 541.575 22.0441C543.335 23.0121 544.215 24.5961 544.215 26.7961C544.215 28.6441 543.482 30.1401 542.015 31.2841C540.548 32.4281 538.055 33.0001 534.535 33.0001C531.719 33.0001 529.446 33.0001 527.715 33.0001C525.984 33.0295 524.518 33.0735 523.315 33.1321ZM531.367 27.6761C531.367 28.9375 531.587 29.7735 532.027 30.1841C532.467 30.5655 533.142 30.7561 534.051 30.7561C536.779 30.7561 538.143 29.5975 538.143 27.2801C538.143 26.1655 537.908 25.2855 537.439 24.6401C536.97 23.9948 536.368 23.5255 535.635 23.2321C534.931 22.9388 534.198 22.7921 533.435 22.7921C533.259 22.7921 532.966 22.8068 532.555 22.8361C532.144 22.8361 531.748 22.8508 531.367 22.8801V27.6761ZM546.547 33.1321C546.547 32.6335 546.562 32.1935 546.591 31.8121C546.62 31.4308 546.708 31.0788 546.855 30.7561C547.676 30.7561 548.263 30.4921 548.615 29.9641C548.996 29.4361 549.187 28.4241 549.187 26.9281V18.9201C549.187 17.4241 548.996 16.4121 548.615 15.8841C548.263 15.3561 547.676 15.0921 546.855 15.0921C546.708 14.7695 546.62 14.4175 546.591 14.0361C546.562 13.6548 546.547 13.2148 546.547 12.7161C547.192 12.7455 547.984 12.7748 548.923 12.8041C549.891 12.8335 550.888 12.8481 551.915 12.8481C552.912 12.8481 553.88 12.8335 554.819 12.8041C555.787 12.7748 556.594 12.7455 557.239 12.7161C557.239 13.2148 557.224 13.6548 557.195 14.0361C557.166 14.4175 557.092 14.7695 556.975 15.0921C556.124 15.0921 555.508 15.3561 555.127 15.8841C554.775 16.4121 554.599 17.4241 554.599 18.9201V21.3841C555.508 21.3841 556.242 21.2668 556.799 21.0321C557.356 20.7975 557.84 20.4308 558.251 19.9321C558.691 19.4335 559.16 18.7881 559.659 17.9961C560.392 16.8521 561.052 15.8841 561.639 15.0921C562.255 14.2708 562.9 13.6548 563.575 13.2441C564.279 12.8041 565.13 12.5841 566.127 12.5841C566.508 12.5841 566.919 12.6135 567.359 12.6721C567.799 12.7308 568.166 12.7895 568.459 12.8481C568.4 13.5815 568.371 14.4468 568.371 15.4441C568.4 16.4121 568.488 17.2775 568.635 18.0401C568.224 18.1575 567.74 18.2455 567.183 18.3041C566.626 18.3628 566.112 18.3775 565.643 18.3481C565.467 17.4388 565.276 16.8668 565.071 16.6321C564.895 16.3681 564.66 16.2361 564.367 16.2361C563.898 16.2361 563.472 16.4561 563.091 16.8961C562.739 17.3068 562.328 17.9081 561.859 18.7001C561.36 19.4628 560.92 20.0788 560.539 20.5481C560.187 21.0175 559.659 21.4281 558.955 21.7801C559.982 21.8975 560.832 22.1321 561.507 22.4841C562.211 22.8361 562.827 23.3348 563.355 23.9801C563.883 24.6255 564.426 25.4615 564.983 26.4881C565.54 27.4561 566.01 28.2335 566.391 28.8201C566.802 29.4068 567.227 29.8468 567.667 30.1401C568.136 30.4335 568.723 30.6095 569.427 30.6681C569.427 31.1375 569.398 31.5775 569.339 31.9881C569.28 32.3695 569.192 32.7068 569.075 33.0001C568.283 33.0001 567.388 33.0148 566.391 33.0441C565.423 33.1028 564.396 33.2201 563.311 33.3961C562.636 32.9855 562.064 32.3841 561.595 31.5921C561.126 30.7708 560.686 29.9055 560.275 28.9961C559.864 28.0575 559.41 27.1628 558.911 26.3121C558.442 25.4615 557.855 24.7721 557.151 24.2441C556.476 23.7161 555.626 23.4668 554.599 23.4961V26.9281C554.599 28.4241 554.775 29.4361 555.127 29.9641C555.508 30.4921 556.124 30.7561 556.975 30.7561C557.092 31.0788 557.166 31.4308 557.195 31.8121C557.224 32.1935 557.239 32.6335 557.239 33.1321C556.594 33.1028 555.787 33.0735 554.819 33.0441C553.88 33.0148 552.912 33.0001 551.915 33.0001C550.888 33.0001 549.891 33.0148 548.923 33.0441C547.984 33.0735 547.192 33.1028 546.547 33.1321ZM581.629 33.3961C578.315 33.3961 575.733 32.4575 573.885 30.5801C572.037 28.7028 571.113 26.1948 571.113 23.0561C571.113 20.9148 571.568 19.0521 572.477 17.4681C573.416 15.8548 574.677 14.6228 576.261 13.7721C577.875 12.8921 579.708 12.4521 581.761 12.4521C584.049 12.4521 585.971 12.8921 587.525 13.7721C589.109 14.6521 590.312 15.8695 591.133 17.4241C591.955 18.9788 592.365 20.7681 592.365 22.7921C592.365 24.9041 591.911 26.7521 591.001 28.3361C590.121 29.9201 588.875 31.1668 587.261 32.0761C585.677 32.9561 583.8 33.3961 581.629 33.3961ZM582.157 30.8881C583.653 30.8881 584.783 30.2135 585.545 28.8641C586.308 27.4855 586.689 25.7401 586.689 23.6281C586.689 20.8708 586.147 18.7295 585.061 17.2041C583.976 15.6788 582.715 14.9161 581.277 14.9161C579.781 14.9161 578.652 15.5761 577.889 16.8961C577.156 18.1868 576.789 19.8441 576.789 21.8681C576.789 24.6255 577.259 26.8255 578.197 28.4681C579.165 30.0815 580.485 30.8881 582.157 30.8881ZM595.245 33.1321C595.245 32.6335 595.26 32.1935 595.289 31.8121C595.319 31.4308 595.407 31.0788 595.553 30.7561C596.375 30.7561 596.961 30.4921 597.313 29.9641C597.695 29.4361 597.885 28.4241 597.885 26.9281V18.9201C597.885 17.4241 597.695 16.4121 597.313 15.8841C596.961 15.3561 596.375 15.0921 595.553 15.0921C595.407 14.7695 595.319 14.4175 595.289 14.0361C595.26 13.6548 595.245 13.2148 595.245 12.7161C595.891 12.7455 596.639 12.7748 597.49 12.8041C598.37 12.8335 599.147 12.8481 599.821 12.8481C600.701 12.8481 601.758 12.8335 602.99 12.8041C604.222 12.7748 605.263 12.7601 606.113 12.7601C609.076 12.7601 611.261 13.1415 612.669 13.9041C614.107 14.6375 614.826 15.7668 614.826 17.2921C614.826 18.5241 614.297 19.5801 613.241 20.4601C612.215 21.3108 610.88 21.8388 609.237 22.0441C611.203 22.1615 612.845 22.6455 614.165 23.4961C615.515 24.3175 616.19 25.5788 616.19 27.2801C616.19 28.3655 615.896 29.3481 615.31 30.2281C614.723 31.0788 613.726 31.7535 612.318 32.2521C610.939 32.7508 609.076 33.0001 606.729 33.0001C604.089 33.0001 601.845 33.0001 599.997 33.0001C598.149 33.0295 596.565 33.0735 595.245 33.1321ZM605.102 15.0921C604.72 15.0921 604.383 15.1215 604.089 15.1801C603.825 15.2095 603.532 15.2681 603.209 15.3561V21.4721H605.365C606.744 21.4721 607.727 21.1935 608.313 20.6361C608.929 20.0495 609.237 19.3015 609.237 18.3921C609.237 17.1308 608.812 16.2655 607.961 15.7961C607.111 15.3268 606.158 15.0921 605.102 15.0921ZM606.378 30.8001C607.58 30.8001 608.533 30.5361 609.237 30.0081C609.941 29.4801 610.293 28.6735 610.293 27.5881C610.293 26.1215 609.78 25.1241 608.753 24.5961C607.756 24.0388 606.554 23.7601 605.146 23.7601H603.209V27.7201C603.209 29.0108 603.459 29.8468 603.957 30.2281C604.485 30.6095 605.292 30.8001 606.378 30.8001ZM633.375 33.3961C632.935 33.2201 632.612 32.9415 632.407 32.5601C632.202 32.1495 632.099 31.5775 632.099 30.8441C632.099 30.3455 632.143 29.8468 632.231 29.3481C631.82 30.3455 631.248 31.1521 630.515 31.7681C629.958 32.2375 629.268 32.6188 628.447 32.9121C627.626 33.1761 626.672 33.3081 625.587 33.3081C623.651 33.3081 622.155 32.8975 621.099 32.0761C620.072 31.2255 619.559 30.0228 619.559 28.4681C619.559 27.0601 619.955 25.9015 620.747 24.9921C621.568 24.0828 622.595 23.3641 623.827 22.8361C625.059 22.2788 626.364 21.8681 627.743 21.6041C629.122 21.3108 630.368 21.0761 631.483 20.9001C631.483 19.4335 631.424 18.3628 631.307 17.6881C631.19 16.9841 630.926 16.4121 630.515 15.9721C629.87 15.1801 629.019 14.7841 627.963 14.7841C627.083 14.7841 626.379 15.0481 625.851 15.5761C625.352 16.1041 624.986 16.7641 624.751 17.5561C624.516 18.3188 624.37 19.0521 624.311 19.7561C623.754 19.7561 623.196 19.7415 622.639 19.7121C622.082 19.6535 621.612 19.5508 621.231 19.4041C621.29 18.6415 621.304 17.8055 621.275 16.8961C621.246 15.9868 621.143 15.1215 620.967 14.3001C622.199 13.7135 623.563 13.2588 625.059 12.9361C626.555 12.6135 627.948 12.4521 629.239 12.4521C630.676 12.4521 631.85 12.6281 632.759 12.9801C633.698 13.3321 634.431 13.7721 634.959 14.3001C635.634 14.9748 636.118 15.8841 636.411 17.0281C636.704 18.1721 636.851 19.7415 636.851 21.7361V25.9601C636.851 27.3095 636.998 28.2188 637.291 28.6881C637.614 29.1575 638.347 29.4215 639.491 29.4801C639.55 29.9201 639.55 30.3601 639.491 30.8001C639.432 31.2108 639.33 31.6068 639.183 31.9881C638.244 32.0175 637.247 32.1641 636.191 32.4281C635.164 32.6628 634.226 32.9855 633.375 33.3961ZM627.391 30.1401C628.007 30.1401 628.623 29.9348 629.239 29.5241C629.884 29.1135 630.412 28.4975 630.823 27.6761C631.263 26.8255 631.483 25.7401 631.483 24.4201V23.0561C630.368 23.2321 629.327 23.4668 628.359 23.7601C627.391 24.0241 626.599 24.4495 625.983 25.0361C625.367 25.5935 625.059 26.3855 625.059 27.4121C625.059 28.3508 625.294 29.0401 625.763 29.4801C626.232 29.9201 626.775 30.1401 627.391 30.1401Z"
  stroke="white"
/>
</svg>
